<?xml version="1.0" encoding="UTF-8"?>
<svg xmlns="http://www.w3.org/2000/svg" viewBox="0 0 1126.05 1116.98">
  <defs>
    <style>
      .cls-1 {
        isolation: isolate;
      }

      .cls-2, .cls-3, .cls-4, .cls-5, .cls-6 {
        stroke-width: 0px;
      }

      .cls-3 {
        fill: #fbb13c;
      }

      .cls-4 {
        fill: #fff;
      }

      .cls-7 {
        stroke: #000;
      }

      .cls-7, .cls-8 {
        fill: none;
        stroke-linecap: round;
        stroke-linejoin: round;
        stroke-width: 8px;
      }

      .cls-8 {
        mix-blend-mode: multiply;
        opacity: .7;
        stroke: #e0a4ab;
      }

      .cls-5 {
        fill: #ffcdc2;
      }

      .cls-6 {
        fill: #5a4dc4;
      }
    </style>
  </defs>
  <g class="cls-1">
    <g id="Layer_2" data-name="Layer 2">
      <g id="Layer_1-2" data-name="Layer 1">
        <g>
          <g>
            <polygon class="cls-6" points="655.92 822.82 655.92 1112.98 288.43 1112.98 351.32 858.62 655.92 822.82"/>
            <polyline class="cls-7" points="506.51 1030.41 482.01 1055.93 482.01 1096.77"/>
          </g>
          <g>
            <path class="cls-6" d="M890.04,264.51l-167.9,41.15c-3.22-13.19-4.93-26.97-4.93-41.15,0-25.26,5.41-49.25,15.16-70.87l157.68,70.87Z"/>
            <path class="cls-7" d="M890.04,91.68v172.84l-157.68-70.87c27.06-60.12,87.48-101.97,157.68-101.97Z"/>
            <path class="cls-7" d="M258.48,4h849.76c7.62,0,13.81,6.19,13.81,13.81v524.48H244.67V17.81c0-7.62,6.19-13.81,13.81-13.81Z"/>
            <path class="cls-7" d="M258.48,4h849.76c7.62,0,13.81,6.19,13.81,13.81v20.15H244.67v-20.15c0-7.62,6.19-13.81,13.81-13.81Z"/>
            <g>
              <line class="cls-7" x1="318.74" y1="112.22" x2="612.89" y2="112.22"/>
              <line class="cls-7" x1="318.74" y1="160.57" x2="539.84" y2="160.57"/>
              <line class="cls-7" x1="318.74" y1="208.93" x2="539.84" y2="208.93"/>
              <line class="cls-7" x1="318.74" y1="257.28" x2="480.99" y2="257.28"/>
              <line class="cls-7" x1="318.74" y1="397.97" x2="461.86" y2="397.97"/>
            </g>
            <path class="cls-7" d="M1062.88,264.51c0,95.45-77.38,172.84-172.85,172.84-81.27,0-149.45-56.1-167.9-131.68-3.22-13.19-4.93-26.97-4.93-41.15,0-25.26,5.41-49.25,15.16-70.87,27.06-60.12,87.48-101.97,157.68-101.97,95.46,0,172.85,77.37,172.85,172.84Z"/>
          </g>
          <g>
            <path class="cls-5" d="M1029.44,169.81s14.1,14.59,4.37,48.17c-9.72,33.58-24.77,63.01-24.77,63.01l20.4-111.18Z"/>
            <path class="cls-5" d="M1023.25,179.52h0s.89-43.36.89-43.36c.09-4.39-3.45-7.99-7.84-7.98h0c-3.79.01-7.02,2.74-7.67,6.47l-3.26,18.63-.21-14.54c-.06-4.15-3.63-7.37-7.76-7h0c-3.12.28-5.69,2.54-6.34,5.61-1.53,7.2-3.98,20.84-3.91,33.76.11,18.7-14.07,62.06-22.86,58.72-6.75-2.57-2.76-33.04-.55-47.02.64-4.05-1.66-7.99-5.5-9.43h0c-5.15-1.93-10.77,1.37-11.58,6.82-2.28,15.37-6.82,43.51-11.27,57.12-6.3,19.27,5.39,54.2,5.39,54.2l57.27,16.34s10.95-26.71,22.94-56.2c0,0,13.73-42.07,12.64-61.14-1.08-19.07-9.93-33.49-9.93-33.49"/>
            <path class="cls-8" d="M1023.45,169.81c3.02,23.17-14.41,73.63-25.4,87.47"/>
            <path class="cls-8" d="M1005.29,159.98c.1,20.18-7.23,58.05-18.64,72.71"/>
            <path class="cls-5" d="M940.78,291.53l-18.22,60.91,75.49,14.8v-59.38c-12.29-25.97-29.38-37.46-57.27-16.34Z"/>
          </g>
          <path class="cls-3" d="M555.52,426.98l104.4,17.1,179.96,466.36-112.57,80.41-48.24-141.16s-85.77-86.28-120.23-220.29c-34.46-134.01-3.32-202.42-3.32-202.42Z"/>
          <polygon class="cls-3" points="304.35 449.03 174.68 483.13 245.13 614.85 162.43 1057.97 350.29 1072.27 357.44 1006.92 438.1 488.24 304.35 449.03"/>
          <path class="cls-3" d="M174.68,483.13S-42.29,760.34,14.38,839.98c33.38,46.91,148.26-.34,203.54-79.33,38.57-55.11,91.54-115.17,91.54-115.17,2.42-72.28-83.47-148.92-134.78-162.34Z"/>
          <path class="cls-3" d="M26.39,850.62c75.45,32.76,163.68,57.29,264.68,73.6l53.09-106.19-219.05-96.61-98.73,129.2Z"/>
          <path class="cls-4" d="M392.67,444.84l-88.32,4.19s92.91,12.66,77.6,239.33c-15.32,226.67-24.5,318.56-24.5,318.56,0,0,241.98,65.35,321.62-157.24,0,0-130.72-263.48-123.54-422.71l-62.54,8.68-100.32,9.19Z"/>
          <path class="cls-3" d="M659.92,444.08c105.68,37.01,222.58,66.37,350.72,88.06,0,0-9.19,102.61-152.39,107.97-143.2,5.36-215.95-46.71-215.95-46.71l17.61-149.33Z"/>
          <path class="cls-3" d="M909.21,317.55s-27.98,109.43-69.33,205.4c-41.57,96.49,170.77,9.19,170.77,9.19l-4.59-198.34-96.84-16.26Z"/>
          <g>
            <polyline class="cls-7" points="183.69 499.99 245.13 614.85 225.24 721.42"/>
            <polyline class="cls-7" points="376.95 760.65 350.29 1072.27 199.9 1060.83"/>
            <path class="cls-7" d="M38.39,695.75s-92.53,150.31,25.96,170.24"/>
            <line class="cls-7" x1="406.45" y1="858.62" x2="574.92" y2="695.75"/>
            <line class="cls-7" x1="460.16" y1="865.99" x2="521.32" y2="789.44"/>
            <line class="cls-7" x1="788.46" y1="777.19" x2="688.26" y2="510.7"/>
            <line class="cls-7" x1="849.42" y1="499.99" x2="826.48" y2="575.03"/>
            <path class="cls-7" d="M569.86,551.9s36.42,125.97,81.58,237.54"/>
            <path class="cls-7" d="M1006.05,333.81l4.59,198.34s-14.55,111.8-152.39,107.97"/>
            <path class="cls-7" d="M569.86,984.41c28.69-12.96,57.37-41.2,86.06-84.73v213.3"/>
            <polyline class="cls-7" points="191.09 904.4 291.08 924.22 344.17 818.03 125.12 721.42"/>
          </g>
          <g>
            <path class="cls-5" d="M413.09,338.15s56.16,50.8,105.93,50.8c66.62,0,37.52-196.04,37.52-196.04h-144.74c-10.57,0-20,6.61-23.62,16.54l-30.74,84.54,26.55,38.03,29.1,6.13Z"/>
            <path class="cls-5" d="M413.09,338.15l-20.42,106.7c24.33,19.57,76.07,26.38,100.32-9.19v-89.05l-79.9-8.46Z"/>
            <path class="cls-7" d="M423.31,346.61s16.79,19.49,57.68,30.85"/>
            <path class="cls-2" d="M446.27,200.31s58.42,61.45,118.15,16.52c52.2-39.26,51.2-102.44,1.74-93.91-10.21,1.76-20.21-3.26-25.69-12.06-6.08-9.77-23.73-16.99-70.72-5.01-81.42,20.76-91.47,52.74-90.85,68.76.28,7.08-2.4,13.95-7.44,18.93-20.06,19.82-63.03,65.73-37.51,72.1,32.67,8.17-7.66,32.16,17.87,41.35,25.53,9.19,5.62,59.22,61.26,31.14,0,0-42.88-17.36-33.69-43.39,9.19-26.04,41.86-15.32,41.86-15.32,0,0,44.41-28.59,25.02-79.13Z"/>
            <circle class="cls-2" cx="503.16" cy="284" r="6.65"/>
            <circle class="cls-7" cx="499.61" cy="280.46" r="20.55"/>
            <circle class="cls-2" cx="564.28" cy="286.08" r="6.65"/>
            <circle class="cls-7" cx="560.73" cy="282.54" r="20.55"/>
            <path class="cls-7" d="M486.76,249.43c9.74-1.29,19.01-.25,27.81,3.12"/>
            <path class="cls-7" d="M542.61,253.96c9.28-3.24,18.57-4.11,27.86-2.61"/>
            <path class="cls-7" d="M539.06,351.21c-11.34,1.22-22.06-.24-32.18-4.39"/>
            <path class="cls-7" d="M530.03,297.78l3.86,16.9c.61,2.66-1.18,5.28-3.88,5.69l-7.04,1.06"/>
            <path class="cls-7" d="M540.23,284c-6.79-3.51-13.58-3.51-20.38,0"/>
            <path class="cls-7" d="M401.53,289.93s-26.34,19.28,11.81,30.61"/>
            <line class="cls-7" x1="479.05" y1="280.46" x2="419.41" y2="275"/>
          </g>
          <g>
            <path class="cls-5" d="M324.24,849.61s30.11-23.96,64.36-15.65c25.06,6.08,44.55-4.56,50.73,4.7,6.18,9.26-16.17,21.55-28.62,21.65-12.45.09-22.79,5.71-22.79,5.71,0,0,35.33,20.32,60.63,28.91,16.64,5.65,30.62,7.39,38.25,7.92,3.42.24,5.98,3.22,5.7,6.64h0c-.24,2.97-2.58,5.34-5.55,5.62l-13.47,1.28,8.55,1.24c5.36.78,8.82,6.08,7.38,11.3h0c-.94,3.4-3.78,5.92-7.27,6.49-5,.81-12.79,1.72-21.52,1.48,0,0,3.59,2.23,8.29,4.4,3.97,1.83,5.51,6.66,3.29,10.42h0c-1.43,2.42-4.11,3.83-6.91,3.59-4.06-.35-10.77-1.45-20.3-4.61l8.24,5.68c2.5,1.73,3.28,5.07,1.81,7.73h0c-1.17,2.12-3.51,3.31-5.91,3-7.61-.98-24.81-3.59-40.27-8.64-20.59-6.72-32.79.1-65.73-25.68-32.94-25.78-45.76-29.83-45.76-29.83l26.88-53.34Z"/>
            <path class="cls-8" d="M473.48,916.38s-17.94,4.16-53.5-11.79"/>
            <path class="cls-8" d="M460.61,936.89s-17.5.86-43.65-10.26"/>
            <path class="cls-8" d="M444.99,950.69s-20.39.62-49.61-16.5"/>
          </g>
        </g>
      </g>
    </g>
  </g>
</svg>