<?xml version="1.0" encoding="UTF-8"?>
<svg version="1.1" xmlns="http://www.w3.org/2000/svg" width="485" height="446">
<path d="M0 0 C4.25435318 3.80122681 8.36543577 7.69116253 12.390625 11.734375 C13.44389986 12.75536558 14.49867691 13.774808 15.5546875 14.79296875 C27.42294897 26.32443282 37.08108511 38.38307189 45.390625 52.734375 C46.123659 53.98439782 46.85673303 55.23439717 47.58984375 56.484375 C53.35908453 66.40588538 53.35908453 66.40588538 55.390625 71.734375 C56.56770364 74.34076343 57.77122394 76.93392176 58.9765625 79.52734375 C59.44320313 80.58566406 59.90984375 81.64398438 60.390625 82.734375 C60.70273926 83.43393311 61.01485352 84.13349121 61.33642578 84.85424805 C64.28876318 91.79118402 65.9619459 98.81039545 67.515625 106.171875 C67.76699219 107.32236328 68.01835937 108.47285156 68.27734375 109.65820312 C71.66711383 125.32036069 73.57769714 140.23581076 73.57592773 156.26660156 C73.57810778 158.46699581 73.59631705 160.66688173 73.61523438 162.8671875 C73.65280411 172.33780936 72.88495592 181.36512387 71.390625 190.734375 C71.27017822 191.55615234 71.14973145 192.37792969 71.02563477 193.22460938 C69.42083852 204.04595342 66.70910147 214.32777085 63.390625 224.734375 C63.18147461 225.40807129 62.97232422 226.08176758 62.75683594 226.77587891 C60.2661283 234.79564567 57.43287566 242.35818346 53.390625 249.734375 C52.97425781 250.53359375 52.55789063 251.3328125 52.12890625 252.15625 C43.99459335 267.53919129 34.79769046 281.58919593 23.390625 294.734375 C22.93848633 295.25563965 22.48634766 295.7769043 22.02050781 296.31396484 C17.97080881 300.94992661 13.80507426 305.44254933 9.390625 309.734375 C8.50375 310.6625 7.616875 311.590625 6.703125 312.546875 C4.390625 314.734375 4.390625 314.734375 2.390625 314.734375 C2.060625 315.724375 1.730625 316.714375 1.390625 317.734375 C0.03051758 319.03369141 0.03051758 319.03369141 -1.71484375 320.3359375 C-2.36074463 320.82126953 -3.00664551 321.30660156 -3.67211914 321.80664062 C-4.37328857 322.31904297 -5.07445801 322.83144531 -5.796875 323.359375 C-6.52447021 323.89498047 -7.25206543 324.43058594 -8.00170898 324.98242188 C-26.50443432 338.48293935 -46.54746046 350.1952194 -68.609375 356.734375 C-69.35026367 356.95673828 -70.09115234 357.17910156 -70.85449219 357.40820312 C-91.34371369 363.48999319 -111.5457037 367.16598093 -132.921875 367.109375 C-133.70251312 367.10883118 -134.48315125 367.10828735 -135.28744507 367.10772705 C-185.00501151 366.949731 -237.6580242 348.88323932 -273.7578125 313.63671875 C-274.36882812 313.00894531 -274.97984375 312.38117188 -275.609375 311.734375 C-276.6921875 310.6515625 -276.6921875 310.6515625 -277.796875 309.546875 C-278.725 308.61875 -279.653125 307.690625 -280.609375 306.734375 C-281.27066406 306.09628906 -281.93195313 305.45820313 -282.61328125 304.80078125 C-291.35525952 296.27165114 -298.87020465 286.90894274 -305.609375 276.734375 C-306.04121094 276.09032715 -306.47304688 275.4462793 -306.91796875 274.78271484 C-329.65623112 240.68302396 -341.79910089 202.79244434 -341.79467773 161.75439453 C-341.79685849 159.50143349 -341.81507535 157.24896847 -341.83398438 154.99609375 C-342.05170924 99.98828278 -317.92415723 48.14329299 -279.546875 9.421875 C-274.53176906 4.45168285 -269.24144837 -0.01353898 -263.609375 -4.265625 C-262.67480469 -4.99394531 -261.74023438 -5.72226562 -260.77734375 -6.47265625 C-242.12052009 -20.82593999 -221.02501222 -32.07779287 -198.609375 -39.265625 C-197.8875 -39.49975098 -197.165625 -39.73387695 -196.421875 -39.97509766 C-129.3110402 -61.29676913 -53.22280238 -46.21141524 0 0 Z M-250.609375 1.734375 C-251.56457031 2.41242188 -252.51976562 3.09046875 -253.50390625 3.7890625 C-268.53589978 14.71798358 -282.01470668 28.46893892 -292.609375 43.734375 C-293.20057129 44.55905273 -293.20057129 44.55905273 -293.80371094 45.40039062 C-323.28276732 86.55455156 -335.85927592 138.67479104 -327.609375 188.734375 C-327.27652054 190.15098497 -326.92997093 191.56444671 -326.56982422 192.97436523 C-326.25287598 194.21516846 -325.93592773 195.45597168 -325.609375 196.734375 C-324.52911041 196.74024124 -323.44884583 196.74610748 -322.33584595 196.75215149 C-312.12581267 196.80951202 -301.91598966 196.88234287 -291.70617104 196.97008991 C-286.45793842 197.01470424 -281.20978183 197.05397993 -275.96142578 197.08081055 C-270.89084625 197.10693284 -265.8205607 197.14739795 -260.75016403 197.19756126 C-258.82145232 197.21416979 -256.89268982 197.22572134 -254.96391678 197.23198891 C-242.20501658 197.2776218 -231.44602801 197.38525634 -220.796875 205.171875 C-219.73855469 205.93371094 -218.68023437 206.69554687 -217.58984375 207.48046875 C-212.93315836 211.00197264 -208.73635384 214.60739616 -204.609375 218.734375 C-203.76375 219.394375 -202.918125 220.054375 -202.046875 220.734375 C-199.609375 222.734375 -199.609375 222.734375 -197.796875 225.109375 C-195.33339727 228.06554827 -192.6651615 230.01700142 -189.5625 232.2578125 C-187.00344273 234.1924598 -184.84454834 236.43879157 -182.609375 238.734375 C-177.69140312 243.12067425 -172.66756568 246.57619272 -165.984375 246.921875 C-160.2248597 244.89537888 -157.63674498 240.67903961 -154.859375 235.421875 C-154.446875 234.535 -154.034375 233.648125 -153.609375 232.734375 C-151.609375 230.734375 -151.609375 230.734375 -148.296875 230.296875 C-144.14985696 230.36498296 -140.86726426 231.68069135 -137.046875 233.234375 C-130.49859096 235.95531539 -130.49859096 235.95531539 -123.609375 235.734375 C-118.63714077 232.10598786 -117.71975402 227.45672943 -116.734375 221.671875 C-116.13016738 218.60506358 -115.61982928 216.75166477 -113.984375 214.046875 C-110.49582269 212.11899083 -107.35911312 212.93104042 -103.609375 213.734375 C-100.36306164 214.84677947 -97.27242795 216.28668671 -94.16601562 217.73828125 C-89.59494033 219.73067903 -86.41569988 220.14556867 -81.609375 218.734375 C-79.99444208 217.00342112 -79.99444208 217.00342112 -79.296875 214.671875 C-78.99394531 213.86492187 -78.69101562 213.05796875 -78.37890625 212.2265625 C-77.66909918 209.92779645 -77.04556208 207.63586849 -76.484375 205.296875 C-75.609375 201.734375 -75.609375 201.734375 -73.609375 199.734375 C-69.56094415 199.32953191 -66.54492905 199.6342682 -62.859375 201.234375 C-57.84426383 203.26383633 -52.9430884 203.59622503 -47.609375 202.734375 C-43.88677981 201.03303267 -42.02314067 198.71434632 -40.421875 194.921875 C-40.73439447 189.60904399 -43.59964873 185.53427084 -47.53149414 182.01293945 C-49.72390528 180.3692 -51.95736139 178.8211294 -54.234375 177.296875 C-55.85475787 176.17199321 -57.47325407 175.04438878 -59.08984375 173.9140625 C-59.8689209 173.37233398 -60.64799805 172.83060547 -61.45068359 172.27246094 C-64.26128571 170.26988309 -66.89965766 168.13618994 -69.546875 165.921875 C-74.17279333 162.05647718 -78.96267293 158.51012586 -83.85986328 154.99804688 C-87.60811617 152.29068475 -91.32507603 149.5404203 -95.046875 146.796875 C-95.87171387 146.18948486 -96.69655273 145.58209473 -97.54638672 144.95629883 C-102.13059802 141.57666123 -106.69282259 138.17106831 -111.234375 134.734375 C-120.49504233 126.8297746 -120.49504233 126.8297746 -131.609375 123.734375 C-137.26155955 125.91110627 -141.97678606 128.8530167 -146.609375 132.734375 C-147.58777344 133.27835938 -148.56617188 133.82234375 -149.57421875 134.3828125 C-152.77896808 136.18358434 -155.77799419 138.1925149 -158.7890625 140.30078125 C-159.71847656 140.95111328 -160.64789063 141.60144531 -161.60546875 142.27148438 C-163.52136228 143.61936876 -165.43285693 144.97352798 -167.33984375 146.33398438 C-175.43150844 151.969051 -183.48733496 156.27726553 -193.609375 154.734375 C-199.87660915 152.90760271 -206.17547729 150.57398921 -209.79296875 144.8671875 C-212.83239801 138.95660188 -213.76064992 133.29570604 -212.609375 126.734375 C-209.32581351 117.19492858 -200.40445004 110.16360004 -193.30615234 103.37060547 C-191.86448388 101.98038071 -190.45404877 100.55788249 -189.05078125 99.12890625 C-185.67873968 95.82160788 -182.06096231 92.850887 -178.42578125 89.83984375 C-174.97425821 86.95680686 -171.76443442 83.94642235 -168.609375 80.734375 C-156.5842828 69.31366351 -146.13130291 59.48242567 -128.9921875 59.3359375 C-119.81373015 60.41700292 -112.47794057 63.49485066 -104.734375 68.421875 C-103.86651367 68.9586084 -102.99865234 69.4953418 -102.10449219 70.04833984 C-100.37960057 71.11654195 -98.658114 72.19026611 -96.94042969 73.27001953 C-94.96574493 74.51050541 -92.98373978 75.73609917 -90.9921875 76.94921875 C-86.5517528 79.65666584 -82.13336144 82.39425373 -77.75390625 85.19921875 C-63.37806459 94.37469876 -50.48139893 102.11025145 -32.95874023 101.96142578 C-32.04059036 101.96171783 -31.12244049 101.96200989 -30.1764679 101.96231079 C-27.17353514 101.96092919 -24.1708576 101.94542359 -21.16796875 101.9296875 C-19.07333003 101.9259532 -16.97868956 101.9231082 -14.88404846 101.92111206 C-9.39483746 101.91350842 -3.9057338 101.89388821 1.58343506 101.8717041 C7.19428048 101.85117501 12.8051434 101.84209528 18.41601562 101.83203125 C29.40759901 101.81063906 40.39910305 101.77654288 51.390625 101.734375 C51.390625 81.65720968 34.52778454 56.85404474 22.390625 41.734375 C21.65585937 40.79335937 20.92109375 39.85234375 20.1640625 38.8828125 C-12.15083079 -1.65353774 -58.39844369 -29.52629572 -110.28466797 -35.57763672 C-160.02366793 -40.90952274 -210.58132054 -29.00249602 -250.609375 1.734375 Z M-151.484375 82.421875 C-152.0837085 82.94716797 -152.68304199 83.47246094 -153.30053711 84.01367188 C-155.07920412 85.57739782 -156.84638483 87.15301087 -158.609375 88.734375 C-160.06923828 90.04341797 -160.06923828 90.04341797 -161.55859375 91.37890625 C-163.18613054 92.84587887 -164.80933006 94.3176961 -166.42578125 95.796875 C-167.97982525 97.17577629 -169.58407659 98.49896128 -171.21875 99.78125 C-173.24970561 101.44052746 -174.71320002 102.92609711 -176.296875 104.984375 C-178.79720855 108.00803418 -181.50714496 110.33444891 -184.609375 112.734375 C-188.31038268 115.60307211 -191.36540243 118.48954968 -194.296875 122.12890625 C-196.24020427 124.50601438 -198.40832576 126.59621288 -200.609375 128.734375 C-201.95309275 129.88176414 -201.95309275 129.88176414 -202.109375 132.921875 C-201.48376489 137.69215211 -200.00460391 138.74710008 -196.3359375 141.5703125 C-192.56325479 144.11388591 -189.05547868 144.28328945 -184.609375 143.734375 C-181.34078518 142.28330582 -181.34078518 142.28330582 -178.296875 140.046875 C-177.71856934 139.6540332 -177.14026367 139.26119141 -176.54443359 138.85644531 C-175.26371723 137.98300144 -173.98890382 137.10085707 -172.71923828 136.21142578 C-169.57752473 134.01200817 -166.40563162 131.85722955 -163.23754883 129.69604492 C-161.60821291 128.58190524 -159.98159404 127.4637782 -158.3581543 126.34106445 C-136.50630591 111.24742418 -136.50630591 111.24742418 -125.72265625 112.7421875 C-114.21984133 116.40807833 -104.00544404 125.47591167 -94.609375 132.734375 C-91.94868346 134.74236565 -89.2788461 136.7380776 -86.609375 138.734375 C-82.82649405 141.56862856 -79.04422479 144.4035743 -75.2734375 147.25390625 C-69.87642825 151.32594279 -64.44068175 155.30682977 -58.86328125 159.12890625 C-56.3664768 160.90739261 -54.00147695 162.81776732 -51.609375 164.734375 C-49.80378827 166.05636936 -47.99111413 167.36873208 -46.171875 168.671875 C-45.21152344 169.37441406 -44.25117188 170.07695312 -43.26171875 170.80078125 C-41.76754551 171.89005335 -40.2654278 172.9691782 -38.73828125 174.01171875 C-33.9626185 177.49733234 -31.43932801 182.22887535 -29.609375 187.734375 C-28.66082345 194.17736664 -28.94832682 201.15737828 -32.609375 206.734375 C-38.70610251 212.89975935 -45.11972993 214.80587796 -53.671875 214.921875 C-57.75827375 214.89502613 -61.59132909 214.48066882 -65.609375 213.734375 C-65.97289062 214.47042969 -66.33640625 215.20648438 -66.7109375 215.96484375 C-70.20296745 222.74296342 -73.03016898 228.20797299 -80.609375 230.734375 C-87.62639903 231.44658543 -93.04913711 230.63116003 -99.41796875 227.609375 C-101.83523875 226.48716182 -101.83523875 226.48716182 -105.609375 226.734375 C-105.77953125 227.38664063 -105.9496875 228.03890625 -106.125 228.7109375 C-108.01385665 235.52287798 -109.77184046 241.34772205 -116.171875 245.109375 C-122.79969556 248.05370421 -129.7799339 247.54510214 -136.546875 245.296875 C-137.23652344 245.03003906 -137.92617187 244.76320313 -138.63671875 244.48828125 C-140.60777451 243.73498667 -142.55506782 243.20773885 -144.609375 242.734375 C-145.08246094 243.48203125 -145.55554688 244.2296875 -146.04296875 245 C-150.3673249 251.44017173 -153.83944973 255.98116109 -161.609375 257.734375 C-172.19065592 259.27480411 -181.07549303 254.50609803 -189.609375 248.734375 C-192.65772331 246.23663521 -195.48275569 243.55361653 -198.296875 240.796875 C-199.00392578 240.11947266 -199.71097656 239.44207031 -200.43945312 238.74414062 C-203.76774079 235.5446899 -207.0445785 232.29984278 -210.2890625 229.015625 C-214.75300044 224.53643225 -219.6609862 220.6616677 -224.609375 216.734375 C-225.34800781 216.12851562 -226.08664063 215.52265625 -226.84765625 214.8984375 C-227.51152344 214.36992187 -228.17539063 213.84140625 -228.859375 213.296875 C-229.70242187 212.61818359 -229.70242187 212.61818359 -230.5625 211.92578125 C-236.09389019 208.70617437 -241.79705449 208.44770679 -248.02319336 208.50732422 C-248.8337619 208.50703217 -249.64433044 208.50674011 -250.47946167 208.50643921 C-253.13615948 208.50782316 -255.79257044 208.52333995 -258.44921875 208.5390625 C-260.30009305 208.54279596 -262.15096933 208.54564136 -264.00184631 208.54763794 C-268.85651168 208.55524818 -273.71105604 208.57487413 -278.56567383 208.5970459 C-283.52618778 208.61756068 -288.48672142 208.62665167 -293.44726562 208.63671875 C-303.16802171 208.65812259 -312.88868826 208.69222687 -322.609375 208.734375 C-322.30944471 210.30645853 -322.00541002 211.87775927 -321.69970703 213.44873047 C-321.53084991 214.3238327 -321.3619928 215.19893494 -321.1880188 216.10055542 C-320.29773962 220.15284933 -318.94494733 223.98218202 -317.484375 227.859375 C-317.17798096 228.67704346 -316.87158691 229.49471191 -316.5559082 230.3371582 C-309.20662017 249.49508241 -298.57614763 266.87658743 -285.609375 282.734375 C-284.91739014 283.58878174 -284.91739014 283.58878174 -284.21142578 284.46044922 C-255.66433096 319.50386904 -215.66201028 342.44978528 -171.609375 351.734375 C-170.9184375 351.88535645 -170.2275 352.03633789 -169.515625 352.19189453 C-144.47121044 357.44917992 -117.48385517 356.02480755 -92.609375 350.734375 C-91.48740723 350.51007813 -91.48740723 350.51007813 -90.34277344 350.28125 C-61.4936194 344.44385677 -32.49250276 329.88245645 -10.5390625 310.328125 C-7.67713886 307.79436861 -4.73121409 305.41835742 -1.734375 303.046875 C2.16534067 299.86953792 5.53566019 296.59985009 8.73828125 292.7265625 C10.42521535 290.69267032 12.21035851 288.78849553 14.015625 286.859375 C49.59223591 246.79251223 64.35914909 194.85745441 61.22949219 142.01367188 C60.8629279 137.53594813 60.2233609 133.15193739 59.390625 128.734375 C59.26751953 128.08114258 59.14441406 127.42791016 59.01757812 126.75488281 C58.25168782 119.75276403 58.25168782 119.75276403 55.390625 113.734375 C52.39041977 113.62494848 49.41239679 113.58013525 46.41137695 113.57666016 C45.46811554 113.57157944 44.52485413 113.56649872 43.55300903 113.56126404 C41.49481968 113.55053023 39.43661843 113.54192197 37.37841225 113.53514481 C34.1105451 113.52337135 30.84281106 113.50391656 27.57499695 113.48202515 C18.27978017 113.42039895 8.98457253 113.36659027 -0.31079102 113.33300781 C-5.9919887 113.31192838 -11.67295116 113.27650566 -17.35401344 113.23225021 C-19.51108825 113.21817859 -21.66820476 113.20938797 -23.8253231 113.20619583 C-48.71468313 113.16551061 -64.78293429 107.28780879 -85.58984375 93.93359375 C-93.10598315 89.11918979 -100.73757792 84.50271027 -108.44580078 80.00292969 C-109.77811989 79.22175951 -111.10575887 78.43246042 -112.42529297 77.62988281 C-126.89533566 68.85089525 -139.46978842 71.64720341 -151.484375 82.421875 Z " fill="#F6F7F7" transform="translate(378.609375,69.265625)"/>
<path d="M0 0 C0.66 0 1.32 0 2 0 C3.49629179 1.6785513 4.92292661 3.41958898 6.3125 5.1875 C8.63818652 8.13705489 10.89958138 10.90260149 13.59765625 13.51953125 C16.05480257 16.05658477 17.51644897 18.3707969 19.125 21.5 C20.56354055 24.26821857 21.99662809 26.99439657 23.60546875 29.66796875 C25.02678002 32.04478339 26.03720803 34.40786778 27 37 C27.66 37 28.32 37 29 37 C29.63615234 38.50433594 29.63615234 38.50433594 30.28515625 40.0390625 C31.92164603 43.85721871 33.6667878 47.61765886 35.4375 51.375 C36.05247427 52.69122366 36.66705903 54.00762939 37.28125 55.32421875 C38.2955177 57.49677571 39.31591939 59.66581848 40.34375 61.83203125 C40.7046875 62.60933594 41.065625 63.38664062 41.4375 64.1875 C41.74558594 64.84105469 42.05367188 65.49460937 42.37109375 66.16796875 C43 68 43 68 43 72 C43.66 72 44.32 72 45 72 C44.34 73.65 43.68 75.3 43 77 C12.97 77 -17.06 77 -48 77 C-48 76.34 -48 75.68 -48 75 C-18.63 74.67 10.74 74.34 41 74 C33.42913985 48.7637995 20.84281883 26.31531213 3.8125 6.3046875 C2.19924404 4.25334911 1.05137409 2.37654352 0 0 Z " fill="#EDEEEE" transform="translate(389,96)"/>
<path d="M0 0 C0.66 0.66 1.32 1.32 2 2 C5.15895571 2.29419696 5.15895571 2.29419696 8.92822266 2.22705078 C9.64052536 2.22734283 10.35282806 2.22763489 11.0867157 2.22793579 C13.44595434 2.22654016 15.80487889 2.21096827 18.1640625 2.1953125 C19.79788032 2.19158319 21.43170038 2.18873583 23.06552124 2.18673706 C27.36952876 2.1790941 31.67340168 2.15943999 35.97735596 2.1373291 C40.36769795 2.1168849 44.75806165 2.1077384 49.1484375 2.09765625 C57.76568682 2.07619466 66.38282668 2.04205081 75 2 C75 2.66 75 3.32 75 4 C49.59 4 24.18 4 -2 4 C5.40814894 27.27497535 5.40814894 27.27497535 16 49 C16.35723145 49.60215332 16.71446289 50.20430664 17.08251953 50.82470703 C22.24376303 59.46263643 27.75889801 67.5832164 34.06640625 75.42578125 C36 78 36 78 37 81 C36.34 81 35.68 81 35 81 C35 80.34 35 79.68 35 79 C34.34 79 33.68 79 33 79 C31.2618141 76.72227139 29.65032719 74.44272648 28.0625 72.0625 C27.58176025 71.3511792 27.10102051 70.6398584 26.60571289 69.90698242 C25.06063779 67.61106251 23.52866377 65.3068752 22 63 C21.4853418 62.22591797 20.97068359 61.45183594 20.44042969 60.65429688 C18.93187836 58.37857221 17.43246756 56.0971672 15.9375 53.8125 C15.47287354 53.10681885 15.00824707 52.4011377 14.52954102 51.67407227 C12.2711364 48.18769946 10.46180643 44.90464739 9 41 C8.02119866 39.19666493 7.02019696 37.40524369 6 35.625 C3.69109416 31.44219957 2.16282013 27.65128053 1 23 C0.3449751 21.22482747 -0.32290492 19.4543722 -1 17.6875 C-2.91406457 12.5309529 -4.10656274 7.41940231 -5 2 C-3.35 2 -1.7 2 0 2 C0 1.34 0 0.68 0 0 Z " fill="#EDF3F3" transform="translate(58,274)"/>
<path d="M0 0 C4.65516888 2.11152175 8.94623829 4.96936936 13.2578125 7.69921875 C17.20029755 10.18656062 21.22151729 12.53043865 25.25 14.875 C33.03322503 19.42073556 40.69070985 24.15141695 48.29882812 28.98388672 C49.80445729 29.91750242 51.34632585 30.79199866 52.890625 31.66015625 C53.56609375 32.10230469 54.2415625 32.54445312 54.9375 33 C54.9375 33.66 54.9375 34.32 54.9375 35 C50.24330769 33.35611942 46.25845012 30.86584437 42.0625 28.25 C40.45843342 27.2615563 38.85426142 26.27328369 37.25 25.28515625 C35.47903226 24.19032155 33.70820547 23.09525882 31.9375 22 C27.98348025 19.55541795 24.02439373 17.11929648 20.0625 14.6875 C19.13711426 14.11354492 18.21172852 13.53958984 17.25830078 12.94824219 C4.37225171 4.42589204 4.37225171 4.42589204 -10.3125 1.375 C-11.41078125 1.38273438 -12.5090625 1.39046875 -13.640625 1.3984375 C-21.06005815 2.70276707 -26.4374177 6.75440393 -31.9375 11.6875 C-32.83432495 12.47435181 -32.83432495 12.47435181 -33.74926758 13.27709961 C-35.52844674 14.84253926 -37.29658618 16.41962594 -39.0625 18 C-40.06888263 18.89337314 -41.07538405 19.78661248 -42.08203125 20.6796875 C-46.5125953 24.59030312 -46.5125953 24.59030312 -50.70703125 28.74609375 C-52.0625 30 -52.0625 30 -54.0625 30 C-54.330625 30.639375 -54.59875 31.27875 -54.875 31.9375 C-56.0625 34 -56.0625 34 -59.0625 35 C-59.3925 35.99 -59.7225 36.98 -60.0625 38 C-61.83984375 39.82421875 -61.83984375 39.82421875 -64 41.6875 C-64.71027344 42.31011719 -65.42054688 42.93273437 -66.15234375 43.57421875 C-68.0625 45 -68.0625 45 -70.0625 45 C-70.3925 45.99 -70.7225 46.98 -71.0625 48 C-71.3925 47.34 -71.7225 46.68 -72.0625 46 C-70.9342446 44.8717446 -69.80562686 43.74385044 -68.67578125 42.6171875 C-67.5222124 41.46082551 -66.37440691 40.29870256 -65.23046875 39.1328125 C-61.33125363 35.17976206 -57.33010372 31.45442751 -53.1171875 27.83984375 C-50.89724772 25.85202695 -48.82898702 23.759476 -46.75 21.625 C-41.84541317 16.66132176 -36.53311006 12.32138838 -31.0625 8 C-30.21816406 7.32324219 -29.37382812 6.64648438 -28.50390625 5.94921875 C-19.83019048 -0.92993513 -11.18575325 -3.71261617 0 0 Z " fill="#BCC4C3" transform="translate(259.0625,141)"/>
<path d="M0 0 C0.66 0 1.32 0 2 0 C2.99329058 8.50869396 3.18624696 16.97755952 3.18530273 25.53222656 C3.18748278 27.73262081 3.20569205 29.93250673 3.22460938 32.1328125 C3.26217911 41.60343436 2.49433092 50.63074887 1 60 C0.87955322 60.82177734 0.75910645 61.64355469 0.63500977 62.49023438 C-0.85925776 72.56626925 -3.24601653 82.20283066 -6.33398438 91.89941406 C-7.01596278 94.05034596 -7.67255951 96.20807578 -8.328125 98.3671875 C-8.75894955 99.74525119 -9.19118407 101.12287507 -9.625 102.5 C-10.00914062 103.7271875 -10.39328125 104.954375 -10.7890625 106.21875 C-11.38847656 107.59546875 -11.38847656 107.59546875 -12 109 C-13.485 109.495 -13.485 109.495 -15 110 C-15 108.68 -15 107.36 -15 106 C-14.34 106 -13.68 106 -13 106 C-12.80664062 105.14277344 -12.61328125 104.28554688 -12.4140625 103.40234375 C-9.06133828 88.68023293 -9.06133828 88.68023293 -6.53515625 82.30078125 C-5.00735725 78.24381164 -4.1300245 74.26988477 -3.4375 70 C-3.32470703 69.35933594 -3.21191406 68.71867187 -3.09570312 68.05859375 C-2.69685401 65.7100632 -2.34777307 63.35665386 -2 61 C-1.82500977 59.91009766 -1.65001953 58.82019531 -1.46972656 57.69726562 C0.28698968 45.62722587 0.22774751 33.67654938 0.125 21.5 C0.11494169 19.40495223 0.10582093 17.30989975 0.09765625 15.21484375 C0.07588805 10.14311002 0.04151821 5.07160892 0 0 Z " fill="#DADFE0" transform="translate(449,200)"/>
<path d="M0 0 C0.66 0 1.32 0 2 0 C2 0.66 2 1.32 2 2 C31.04 2 60.08 2 90 2 C90 2.66 90 3.32 90 4 C78.86238782 4.85903172 67.85290853 5.08216411 56.6875 4.87890625 C55.09611822 4.85451593 53.5047279 4.8306774 51.91333008 4.80735779 C47.78375288 4.74540079 43.6543327 4.67609849 39.52490234 4.60510254 C35.28750582 4.53360518 31.05000053 4.46928051 26.8125 4.40429688 C18.54154601 4.2764292 10.2707443 4.1407776 2 4 C1.34 2.68 0.68 1.36 0 0 Z " fill="#E8E9E9" transform="translate(51,264)"/>
<path d="M0 0 C0 0.66 0 1.32 0 2 C-0.66 2 -1.32 2 -2 2 C-2 2.66 -2 3.32 -2 4 C-3.8253125 4.185625 -3.8253125 4.185625 -5.6875 4.375 C-17.70060618 7.05296087 -29.24500667 20.2190052 -37.59375 28.60546875 C-40.01464663 31.0145753 -42.53197078 33.1963531 -45.15625 35.375 C-46.59277223 36.64108739 -47.97136689 37.97299944 -49.32421875 39.328125 C-51.71186701 41.71228765 -54.15527644 43.98727221 -56.65673828 46.2487793 C-69.21792025 57.18924549 -69.21792025 57.18924549 -76 72 C-76.66 72 -77.32 72 -78 72 C-77.05601992 65.58093547 -74.23781993 60.90216024 -69.875 56.1875 C-69.08351562 55.3315625 -68.29203125 54.475625 -67.4765625 53.59375 C-63.71913804 49.65852943 -59.87880043 45.8150975 -56 42 C-54.81664062 40.78763672 -54.81664062 40.78763672 -53.609375 39.55078125 C-49.92190679 35.94611547 -45.92955564 32.75882093 -41.9375 29.5 C-39.13781773 27.11729169 -36.57543744 24.62076514 -34 22 C-10.94370861 0 -10.94370861 0 0 0 Z " fill="#BDBFBE" transform="translate(243,128)"/>
<path d="M0 0 C2.20166351 3.93377793 3.43341857 8.16830108 4.8125 12.4375 C8.67042782 24.14419379 12.67927997 35.36404004 19 46 C19.35723145 46.60215332 19.71446289 47.20430664 20.08251953 47.82470703 C25.24376303 56.46263643 30.75889801 64.5832164 37.06640625 72.42578125 C39 75 39 75 40 78 C39.34 78 38.68 78 38 78 C38 77.34 38 76.68 38 76 C37.34 76 36.68 76 36 76 C34.2618141 73.72227139 32.65032719 71.44272648 31.0625 69.0625 C30.34139038 67.9955188 30.34139038 67.9955188 29.60571289 66.90698242 C28.06063779 64.61106251 26.52866377 62.3068752 25 60 C24.4853418 59.22591797 23.97068359 58.45183594 23.44042969 57.65429688 C21.93187836 55.37857221 20.43246756 53.0971672 18.9375 50.8125 C18.47287354 50.10681885 18.00824707 49.4011377 17.52954102 48.67407227 C15.2711364 45.18769946 13.46180643 41.90464739 12 38 C11.02119866 36.19666493 10.02019696 34.40524369 9 32.625 C6.69109416 28.44219957 5.16282013 24.65128053 4 20 C3.32324943 18.18345901 2.63471368 16.37128567 1.9375 14.5625 C0.23798934 9.96494318 -0.72815927 5.89313306 -1 1 C-0.67 0.67 -0.34 0.34 0 0 Z " fill="#D1D8D6" transform="translate(55,277)"/>
<path d="M0 0 C0.66 0 1.32 0 2 0 C2 0.66 2 1.32 2 2 C-1.26821787 4.53453631 -4.44308164 6.69280809 -8.06640625 8.69140625 C-14.24748538 12.18538152 -19.95667383 16.48054774 -25.73046875 20.59960938 C-33.83127806 26.24104435 -41.87019206 30.52966898 -52 29 C-58.26510424 27.23437971 -63.5448634 24.77336064 -68 20 C-72 12.8 -72 12.8 -72 9 C-71.34 9 -70.68 9 -70 9 C-69.71125 10.134375 -69.4225 11.26875 -69.125 12.4375 C-68.75375 13.613125 -68.3825 14.78875 -68 16 C-67.34 16.33 -66.68 16.66 -66 17 C-65.67 17.99 -65.34 18.98 -65 20 C-57.78396117 25.53789026 -50.9374761 27.0051633 -42 26 C-36.69175561 24.47369177 -31.51619216 22.2050396 -27 19 C-26.67 18.34 -26.34 17.68 -26 17 C-25.34 17 -24.68 17 -24 17 C-23.67 16.34 -23.34 15.68 -23 15 C-21.34882007 14.05646861 -19.69505213 13.11712468 -18.02734375 12.203125 C-15.88857507 10.93387499 -13.96808014 9.51921976 -12 8 C-8.48620047 5.29444286 -4.88093774 3.1384759 -1 1 C-0.67 0.67 -0.34 0.34 0 0 Z " fill="#CDD4D3" transform="translate(237,196)"/>
<path d="M0 0 C0.66 0 1.32 0 2 0 C3.49629179 1.6785513 4.92292661 3.41958898 6.3125 5.1875 C8.63818652 8.13705489 10.89958138 10.90260149 13.59765625 13.51953125 C16.05480257 16.05658477 17.51644897 18.3707969 19.125 21.5 C20.56354055 24.26821857 21.99662809 26.99439657 23.60546875 29.66796875 C25.02678002 32.04478339 26.03720803 34.40786778 27 37 C27.66 37 28.32 37 29 37 C29.42410156 38.00289062 29.84820312 39.00578125 30.28515625 40.0390625 C31.92164603 43.85721871 33.6667878 47.61765886 35.4375 51.375 C36.05247427 52.69122366 36.66705903 54.00762939 37.28125 55.32421875 C38.2955177 57.49677571 39.31591939 59.66581848 40.34375 61.83203125 C40.88515625 62.99798828 40.88515625 62.99798828 41.4375 64.1875 C41.74558594 64.84105469 42.05367188 65.49460937 42.37109375 66.16796875 C43 68 43 68 43 72 C43.66 72 44.32 72 45 72 C44.34 73.65 43.68 75.3 43 77 C42.34 77 41.68 77 41 77 C41.0928125 76.01 41.0928125 76.01 41.1875 75 C39.70661008 51.30576128 18.66004365 23.75055129 3.8125 6.3046875 C2.19924404 4.25334911 1.05137409 2.37654352 0 0 Z " fill="#D6D8D7" transform="translate(389,96)"/>
<path d="M0 0 C10.96044161 -0.62040236 19.7364306 2.87287191 28.875 8.6875 C29.74286133 9.2242334 30.61072266 9.7609668 31.50488281 10.31396484 C33.22977443 11.38216695 34.951261 12.45589111 36.66894531 13.53564453 C38.64363007 14.77613041 40.62563522 16.00172417 42.6171875 17.21484375 C47.0576222 19.92229084 51.47601356 22.65987873 55.85546875 25.46484375 C64.34606182 30.88020037 72.88677341 35.6996962 82 40 C82 40.66 82 41.32 82 42 C73.91626127 40.17806326 66.99438413 35.23481932 60.05078125 30.90234375 C58.16837712 29.7285527 56.27683201 28.56910793 54.37109375 27.43359375 C52.10851923 26.06561212 49.9306845 24.61917271 47.75 23.125 C44.03434874 20.63152163 40.24516988 18.41144618 36.3125 16.28125 C33.85272076 14.91839934 31.46041901 13.46872539 29.0625 12 C27.37752796 10.99574631 25.69004822 9.99568733 24 9 C23.22011719 8.53078125 22.44023437 8.0615625 21.63671875 7.578125 C14.70359394 3.72008501 7.83811711 2.75670583 0 2 C0 1.34 0 0.68 0 0 Z " fill="#D0D0D0" transform="translate(245,128)"/>
<path d="M0 0 C5.28818551 2.75905331 9.70752972 6.0800167 14.3203125 9.8515625 C17.91593411 12.7343495 21.64024844 15.41782006 25.3828125 18.10546875 C28.41659069 20.30156192 31.38728485 22.57231682 34.34375 24.87109375 C36.11858106 26.19120002 36.11858106 26.19120002 39 27 C40.68873879 28.64429829 42.35305515 30.31384218 44 32 C46.74587131 34.35360398 48.56270161 35.85423387 52 37 C53.66666667 38.66666667 55.33333333 40.33333333 57 42 C58.34432461 42.9720913 59.69914953 43.92977746 61.0625 44.875 C65.04484268 47.76577427 66.88304774 50.5896828 69 55 C68.01 55 67.02 55 66 55 C63 50.77777778 63 50.77777778 63 48 C62.47535156 47.76410156 61.95070313 47.52820313 61.41015625 47.28515625 C58.23385562 45.59147244 55.35439158 43.53467392 52.4375 41.4375 C51.81834717 40.99422363 51.19919434 40.55094727 50.5612793 40.09423828 C45.75537207 36.61983514 41.17180488 32.92217844 36.61328125 29.12890625 C33.27251203 26.40735285 29.80963971 23.8929964 26.30859375 21.3828125 C21.86177343 18.19409611 17.46595478 14.93567103 13.0625 11.6875 C12.23298828 11.07624268 11.40347656 10.46498535 10.54882812 9.83520508 C6.13528505 6.58143503 6.13528505 6.58143503 4 5 C3.25419678 4.48284424 2.50839355 3.96568848 1.73999023 3.43286133 C1.16579346 2.96001709 0.59159668 2.48717285 0 2 C0 1.34 0 0.68 0 0 Z " fill="#C6CAC9" transform="translate(270,205)"/>
<path d="M0 0 C0.66 0.33 1.32 0.66 2 1 C-6.2541657 18.12465462 -16.50120509 33.69195058 -29 48 C-29.67385742 48.77537109 -29.67385742 48.77537109 -30.36132812 49.56640625 C-34.41414421 54.20703536 -38.58151583 58.7042515 -43 63 C-43.886875 63.928125 -44.77375 64.85625 -45.6875 65.8125 C-48 68 -48 68 -50 68 C-50 67.34 -50 66.68 -50 66 C-48.64453125 64.66796875 -48.64453125 64.66796875 -46.8125 63.1875 C-41.98840545 59.18038921 -37.88858 54.91791 -34 50 C-32.83706575 48.68419177 -31.6700622 47.37197387 -30.5 46.0625 C-28.40881651 43.69545827 -26.63508295 41.45262442 -24.875 38.8125 C-23 36 -23 36 -20.69921875 33.8125 C-17.54325258 30.52408373 -15.29750438 27.0649106 -12.9375 23.1875 C-12.51662109 22.51396484 -12.09574219 21.84042969 -11.66210938 21.14648438 C-9.17066799 17.10996306 -6.94103579 13.00891445 -4.85961914 8.74731445 C-3.38292387 5.74569331 -1.68482985 2.88827975 0 0 Z " fill="#C6CFCD" transform="translate(431,316)"/>
<path d="M0 0 C6.625 0.75 6.625 0.75 10 3 C10.86625 3.28875 11.7325 3.5775 12.625 3.875 C34.77067243 11.25689081 54.56821532 24.74170406 72 40 C71.505 40.99 71.505 40.99 71 42 C70.26136719 41.3709375 69.52273438 40.741875 68.76171875 40.09375 C58.73848229 31.61139665 48.68114865 24.08393159 37 18 C35.83179587 17.35695186 34.66520705 16.71096305 33.5 16.0625 C22.77364598 10.13448076 11.85746017 5.23660265 0 2 C0 1.34 0 0.68 0 0 Z " fill="#C7CECD" transform="translate(302,40)"/>
<path d="M0 0 C11.99777528 5.1381201 20.79596808 22.09215546 27 33 C27.713863 34.22192766 28.42877951 35.44324022 29.14453125 36.6640625 C29.88857081 37.94238838 30.63206334 39.22103282 31.375 40.5 C31.73343994 41.11214355 32.09187988 41.72428711 32.46118164 42.35498047 C35 46.77047848 35 46.77047848 35 49 C34.34 49 33.68 49 33 49 C32.51080078 48.07767578 32.51080078 48.07767578 32.01171875 47.13671875 C31.57472656 46.32847656 31.13773437 45.52023438 30.6875 44.6875 C30.25824219 43.88699219 29.82898438 43.08648437 29.38671875 42.26171875 C28.11610396 39.9900754 28.11610396 39.9900754 26.39453125 38.40234375 C25 37 25 37 24 33.875 C23.505 32.451875 23.505 32.451875 23 31 C22.01 30.67 21.02 30.34 20 30 C19.19140625 28.109375 19.19140625 28.109375 18.5625 25.75 C17.13321142 21.03559263 15.0455774 18.0455774 11.5625 14.5625 C10.06741011 13.06741011 8.76973891 11.51497831 7.4375 9.875 C5.32087701 6.99667845 5.32087701 6.99667845 3 6 C3 5.01 3 4.02 3 3 C2.34 3 1.68 3 1 3 C0.67 2.01 0.34 1.02 0 0 Z " fill="#C4CAC8" transform="translate(397,89)"/>
<path d="M0 0 C0 0.66 0 1.32 0 2 C-1.73046875 3.19140625 -1.73046875 3.19140625 -4.1875 4.5625 C-21.75297822 14.78421897 -41.56458569 28.84687853 -53 46 C-53.66 46 -54.32 46 -55 46 C-55 43 -55 43 -53.57958984 41.50756836 C-52.92168457 40.97784424 -52.2637793 40.44812012 -51.5859375 39.90234375 C-45.73434504 35.00108704 -40.50570237 29.51925291 -35.18359375 24.05664062 C-34.41402344 23.27611328 -33.64445312 22.49558594 -32.8515625 21.69140625 C-32.15885254 20.98185791 -31.46614258 20.27230957 -30.75244141 19.54125977 C-29 18 -29 18 -27 18 C-27 17.34 -27 16.68 -27 16 C-26.360625 15.896875 -25.72125 15.79375 -25.0625 15.6875 C-24.381875 15.460625 -23.70125 15.23375 -23 15 C-22.67 14.01 -22.34 13.02 -22 12 C-20.35231171 11.28771808 -18.68154629 10.6281913 -17 10 C-15.30299459 8.89959805 -13.63626244 7.75134693 -12 6.5625 C-2.9287257 0 -2.9287257 0 0 0 Z " fill="#CDD4D4" transform="translate(148,57)"/>
<path d="M0 0 C0.495 0.99 0.495 0.99 1 2 C-17.95820529 7.43812465 -37.09287203 12.74496529 -57 12 C-57 11.34 -57 10.68 -57 10 C-54.47980028 9.66114962 -51.95901484 9.32879665 -49.4375 9 C-48.73302734 8.90460938 -48.02855469 8.80921875 -47.30273438 8.7109375 C-42.83062847 8.13389158 -38.51596441 7.98936169 -34 8 C-32.15889508 7.76227491 -30.32336751 7.47358497 -28.5 7.125 C-27.6234375 6.96257812 -26.746875 6.80015625 -25.84375 6.6328125 C-22.51696227 5.89251083 -19.27461844 4.94453469 -16 4 C-13.19312151 3.26878516 -10.37838973 2.57059948 -7.5625 1.875 C-6.83095703 1.69324219 -6.09941406 1.51148438 -5.34570312 1.32421875 C-3.56407251 0.88172226 -1.78207458 0.44070512 0 0 Z " fill="#DBE1DF" transform="translate(309,424)"/>
<path d="M0 0 C0.66 0.33 1.32 0.66 2 1 C1.52691406 1.55945313 1.05382812 2.11890625 0.56640625 2.6953125 C-13.44348968 19.68196994 -23.9372515 39.18498917 -31 60 C-31.66 60 -32.32 60 -33 60 C-32.55170486 58.01853549 -32.09107502 56.03985789 -31.625 54.0625 C-31.36976562 52.96035156 -31.11453125 51.85820312 -30.8515625 50.72265625 C-30.57054687 49.82417969 -30.28953125 48.92570312 -30 48 C-29.01 47.505 -29.01 47.505 -28 47 C-27.30562253 45.00945124 -26.64389782 43.00744615 -26 41 C-25.484375 39.989375 -24.96875 38.97875 -24.4375 37.9375 C-22.89465058 35.13925498 -22.89465058 35.13925498 -22.5625 32.375 C-21.82254784 29.25075755 -20.2700581 28.2700581 -18 26 C-17.21636226 24.66501713 -16.47036808 23.30765955 -15.75 21.9375 C-11.49334481 13.97597826 -5.89408768 6.81503888 0 0 Z " fill="#D0D7D8" transform="translate(91,105)"/>
<path d="M0 0 C0.66 0.33 1.32 0.66 2 1 C-3.58833799 10.54434358 -3.58833799 10.54434358 -6.8125 14.9375 C-9.10798465 17.83381086 -9.10798465 17.83381086 -10 21 C-10.66 21 -11.32 21 -12 21 C-12.2475 21.55558594 -12.495 22.11117188 -12.75 22.68359375 C-14.22862189 25.42366495 -16.02563245 27.65623955 -18 30.0625 C-20.13049187 32.66686965 -22.13212937 35.19819406 -24 38 C-24.66 38 -25.32 38 -26 38 C-26 38.99 -26 39.98 -26 41 C-26.99 41 -27.98 41 -29 41 C-29 41.66 -29 42.32 -29 43 C-30.609375 44.62109375 -30.609375 44.62109375 -32.75 46.4375 C-33.44609375 47.03433594 -34.1421875 47.63117188 -34.859375 48.24609375 C-36.86673589 49.89081098 -38.91070312 51.46126108 -41 53 C-39.49770909 49.17598678 -37.1988409 47.4791017 -34 45 C-33.34 44.01 -32.68 43.02 -32 42 C-31.34 42 -30.68 42 -30 42 C-29.74863281 41.42507813 -29.49726563 40.85015625 -29.23828125 40.2578125 C-27.83752864 37.70375885 -26.21159942 35.97044986 -24.1875 33.875 C-14.87550087 23.71919513 -6.64386479 12.0742383 0 0 Z " fill="#CFCECE" transform="translate(415,323)"/>
<path d="M0 0 C0 0.66 0 1.32 0 2 C-2.02886291 3.6973096 -4.07090065 5.29349599 -6.1875 6.875 C-12.01722148 11.32108031 -17.45734102 16.02664317 -22.73510742 21.11474609 C-25.36030722 23.61746182 -27.71696381 25.47546366 -31 27 C-31.68268138 28.32520503 -32.3507041 29.65812182 -33 31 C-33.99 31.33 -34.98 31.66 -36 32 C-36.33 32.99 -36.66 33.98 -37 35 C-38.77734375 36.82421875 -38.77734375 36.82421875 -40.9375 38.6875 C-41.64777344 39.31011719 -42.35804688 39.93273437 -43.08984375 40.57421875 C-45 42 -45 42 -47 42 C-47.33 42.99 -47.66 43.98 -48 45 C-48.33 44.34 -48.66 43.68 -49 43 C-47.8717446 41.8717446 -46.74312686 40.74385044 -45.61328125 39.6171875 C-44.4597124 38.46082551 -43.31190691 37.29870256 -42.16796875 36.1328125 C-38.26875363 32.17976206 -34.26760372 28.45442751 -30.0546875 24.83984375 C-27.83474772 22.85202695 -25.76648702 20.759476 -23.6875 18.625 C-19.54476161 14.42492267 -15.12811976 10.70198723 -10.5234375 7.01953125 C-8.45501453 5.3641525 -6.43974121 3.67114788 -4.4375 1.9375 C-2 0 -2 0 0 0 Z " fill="#A5B0AE" transform="translate(236,144)"/>
<path d="M0 0 C7.00633755 2.96421973 10.95702407 7.46732315 14.0859375 14.25 C16.10237796 20.31655592 15.75426332 26.38772872 13.8125 32.4375 C11.95576869 36.0869374 10.40271765 37.79283179 7 40 C9 36 9 36 10.0625 34.34375 C11.39654925 31.00862688 11.21176099 27.78050485 11.125 24.25 C11.11597656 23.55261719 11.10695313 22.85523438 11.09765625 22.13671875 C11.07419888 20.42433042 11.03833104 18.71211996 11 17 C10.34 16.67 9.68 16.34 9 16 C9.103125 15.113125 9.20625 14.22625 9.3125 13.3125 C8.89804547 8.91928194 7.31741389 7.7896435 4 5 C3.236875 4.443125 2.47375 3.88625 1.6875 3.3125 C1.130625 2.879375 0.57375 2.44625 0 2 C0 1.34 0 0.68 0 0 Z " fill="#C3CBC8" transform="translate(335,240)"/>
<path d="M0 0 C0.66 0 1.32 0 2 0 C0.23531601 9.98552893 -2.18631287 19.49077959 -5.38134766 29.10742188 C-5.98158741 30.9436723 -6.54416772 32.79210004 -7.10546875 34.640625 C-7.61013672 36.27257812 -7.61013672 36.27257812 -8.125 37.9375 C-8.41632813 38.89527344 -8.70765625 39.85304688 -9.0078125 40.83984375 C-9.33523438 41.55269531 -9.66265625 42.26554687 -10 43 C-11.485 43.495 -11.485 43.495 -13 44 C-13 42.68 -13 41.36 -13 40 C-12.34 40 -11.68 40 -11 40 C-10.80664062 39.14277344 -10.61328125 38.28554688 -10.4140625 37.40234375 C-7.08452199 22.78203466 -7.08452199 22.78203466 -4.5625 16.3125 C-2.51720413 11.02186222 -1.29541555 5.5124066 0 0 Z " fill="#D8DFDF" transform="translate(447,266)"/>
<path d="M0 0 C0.66 0 1.32 0 2 0 C3.46788256 3.03362396 4.03017444 5.36209324 4.3125 8.75 C4.94587618 15.71713797 7.329292 22.34338816 9.39086914 28.99414062 C9.96526566 30.88562029 10.49582091 32.79025412 11.0234375 34.6953125 C12.15912454 38.53847745 13.68334016 42.1027246 15.29296875 45.765625 C16 48 16 48 15 51 C8.23978781 35.7446539 0 16.94175817 0 0 Z " fill="#E1E3E2" transform="translate(39,261)"/>
<path d="M0 0 C0 0.66 0 1.32 0 2 C-8.76296544 5.7176217 -17.70785331 6.06492149 -27 4 C-27.27972656 4.65226562 -27.55945313 5.30453125 -27.84765625 5.9765625 C-30.5693476 11.91002467 -33.35077851 16.49947485 -39 20 C-39.66 20 -40.32 20 -41 20 C-41 19.34 -41 18.68 -41 18 C-39.6078125 17.1028125 -39.6078125 17.1028125 -38.1875 16.1875 C-34.89867594 13.93046388 -33.6216247 12.58464407 -32 9 C-31.835 7.948125 -31.67 6.89625 -31.5 5.8125 C-31.335 4.884375 -31.17 3.95625 -31 3 C-28 1 -28 1 -25.8125 1.36328125 C-24.884375 1.57339844 -23.95625 1.78351563 -23 2 C-20.32055867 2.11804916 -17.67860626 2.18502896 -15 2.1875 C-13.95199219 2.20586914 -13.95199219 2.20586914 -12.8828125 2.22460938 C-8.22745502 2.23778492 -4.33879812 0 0 0 Z " fill="#B8C3C2" transform="translate(340,280)"/>
<path d="M0 0 C0 0.66 0 1.32 0 2 C-0.78503906 2.17015625 -1.57007813 2.3403125 -2.37890625 2.515625 C-8.62870747 3.95729694 -13.58472363 5.58602142 -19 9 C-19.66 9 -20.32 9 -21 9 C-21 9.66 -21 10.32 -21 11 C-21.969375 11.515625 -22.93875 12.03125 -23.9375 12.5625 C-27.9397435 14.82853603 -31.42792517 17.60811373 -34.984375 20.51171875 C-37 22 -37 22 -40 23 C-40.66 23.99 -41.32 24.98 -42 26 C-42.99 25.67 -43.98 25.34 -45 25 C-42.20745993 22.0195628 -39.4241513 19.86561169 -35.9375 17.75 C-31.95849742 15.2842883 -28.17694461 12.69020688 -24.4375 9.875 C-16.98693976 4.37781014 -9.46539589 -0.26292766 0 0 Z " fill="#E2E3E2" transform="translate(250,181)"/>
<path d="M0 0 C0.66 0 1.32 0 2 0 C1.99214478 1.23133667 1.99214478 1.23133667 1.98413086 2.48754883 C1.96690082 5.58699271 1.95445958 8.68641187 1.94506836 11.78588867 C1.9376756 13.76547892 1.92495726 15.74504701 1.91210938 17.72460938 C1.89315417 25.21191564 2.13948622 32.55999977 3 40 C2.34 40 1.68 40 1 40 C-1.03511001 31.98293492 -1.27228427 24.30442378 -1.1875 16.0625 C-1.18685547 14.84498047 -1.18621094 13.62746094 -1.18554688 12.37304688 C-1.1409194 3.42275819 -1.1409194 3.42275819 0 0 Z " fill="#D8DEDD" transform="translate(48,211)"/>
<path d="M0 0 C0 0.66 0 1.32 0 2 C-0.66 2 -1.32 2 -2 2 C-2 2.66 -2 3.32 -2 4 C-3.8253125 4.185625 -3.8253125 4.185625 -5.6875 4.375 C-16.93957167 6.88331111 -26.84645896 18.32031204 -35 26 C-35.99 25.67 -36.98 25.34 -38 25 C-9.34879725 0 -9.34879725 0 0 0 Z " fill="#A2A5A5" transform="translate(243,128)"/>
<path d="M0 0 C2.18723927 3.91837177 3.43414704 8.12604235 4.8125 12.375 C7.41500383 20.29868029 10.15185696 28.16130544 13 36 C12.01 36.495 12.01 36.495 11 37 C8.04795569 31.40012969 5.61695717 26.14443724 4 20 C3.32174279 18.18402102 2.63338375 16.37179774 1.9375 14.5625 C0.23798934 9.96494318 -0.72815927 5.89313306 -1 1 C-0.67 0.67 -0.34 0.34 0 0 Z " fill="#CFD9D7" transform="translate(55,277)"/>
<path d="M0 0 C1.39915812 0.74377904 2.79416383 1.49537095 4.1875 2.25 C4.96480469 2.66765625 5.74210937 3.0853125 6.54296875 3.515625 C9 5 9 5 11.203125 6.8203125 C15.08699791 9.84712966 19.28987805 12.19093967 23.5625 14.625 C24.41263672 15.11484375 25.26277344 15.6046875 26.13867188 16.109375 C29.72011938 18.16554721 33.29051641 20.18223241 37 22 C36.67 22.66 36.34 23.32 36 24 C24.82054839 18.33501473 14.25173849 12.21659863 4 5 C3.20207031 4.45085937 2.40414062 3.90171875 1.58203125 3.3359375 C1.05996094 2.89507812 0.53789063 2.45421875 0 2 C0 1.34 0 0.68 0 0 Z " fill="#CBD2CF" transform="translate(118,392)"/>
<path d="M0 0 C6.625 0.75 6.625 0.75 10 3 C12.32108669 3.70812814 14.65377147 4.38024152 17 5 C17 5.66 17 6.32 17 7 C11.45563871 5.71291613 6.29798964 4.08135307 1 2 C0.91363281 2.64066406 0.82726562 3.28132813 0.73828125 3.94140625 C-0.23491568 9.93237082 -1.56231935 14.67578278 -6 19 C-8.8125 20.4375 -8.8125 20.4375 -11 21 C-11 20.34 -11 19.68 -11 19 C-10.236875 18.401875 -9.47375 17.80375 -8.6875 17.1875 C-3.11109386 12.64856477 -1.83298468 6.69494404 0 0 Z " fill="#CBD5D5" transform="translate(272,294)"/>
<path d="M0 0 C3.12869561 1.45388133 5.7890398 3.20218027 8.5625 5.25 C9.50867188 5.94609375 10.45484375 6.6421875 11.4296875 7.359375 C11.97592773 7.76349609 12.52216797 8.16761719 13.08496094 8.58398438 C15.3692028 10.27299544 17.65721127 11.95684607 19.9453125 13.640625 C24.63247309 17.09068326 29.31695817 20.54435364 34 24 C33.67 24.66 33.34 25.32 33 26 C27.21297085 21.81921319 21.45456169 17.60532673 15.75 13.3125 C8.3564021 7.28655137 8.3564021 7.28655137 0 3 C0 2.01 0 1.02 0 0 Z " fill="#D7D7D7" transform="translate(277,197)"/>
<path d="M0 0 C2 1.375 2 1.375 4 3 C4 3.66 4 4.32 4 5 C4.66 5 5.32 5 6 5 C7.55078125 6.609375 7.55078125 6.609375 9.3125 8.75 C11.98762235 11.91761349 14.73925686 14.43092965 18 17 C18 17.66 18 18.32 18 19 C18.556875 19.226875 19.11375 19.45375 19.6875 19.6875 C22.65253447 21.3703574 24.65353689 23.53621374 27 26 C27.763125 26.763125 28.52625 27.52625 29.3125 28.3125 C29.869375 28.869375 30.42625 29.42625 31 30 C25.18703265 29.329273 20.87858906 24.00370484 17 20 C16.278125 19.278125 15.55625 18.55625 14.8125 17.8125 C13.884375 16.884375 12.95625 15.95625 12 15 C11.26910156 14.28070313 10.53820312 13.56140625 9.78515625 12.8203125 C8.59212891 11.64082031 8.59212891 11.64082031 7.375 10.4375 C6.61960937 9.69371094 5.86421875 8.94992187 5.0859375 8.18359375 C0 2.85955056 0 2.85955056 0 0 Z " fill="#D3D4D3" transform="translate(86,361)"/>
<path d="M0 0 C0.66 0.33 1.32 0.66 2 1 C1.47212891 1.82177734 1.47212891 1.82177734 0.93359375 2.66015625 C-2.70375888 8.50081387 -5.73380362 14.46819068 -8.55102539 20.73266602 C-10.16743065 24.30972411 -11.96112679 27.64957093 -14 31 C-14.69579454 33.19130534 -14.69579454 33.19130534 -15 35 C-15.66 35 -16.32 35 -17 35 C-13.44000623 22.5400218 -6.91502562 10.89640401 0 0 Z " fill="#D8D8D8" transform="translate(68,118)"/>
<path d="M0 0 C12.01201711 3.80380542 23.02942453 8.86001663 34 15 C33.67 15.66 33.34 16.32 33 17 C31.85724609 16.40251953 31.85724609 16.40251953 30.69140625 15.79296875 C24.54946004 12.64148324 18.61271839 9.98381552 12 8 C12 7.34 12 6.68 12 6 C10.948125 5.71125 9.89625 5.4225 8.8125 5.125 C5.77181289 4.22774807 2.91287656 3.23576581 0 2 C0 1.34 0 0.68 0 0 Z " fill="#D4D4D4" transform="translate(313,32)"/>
<path d="M0 0 C1.03125 0.495 2.0625 0.99 3.125 1.5 C3.125 2.49 3.125 3.48 3.125 4.5 C2.25875 4.005 1.3925 3.51 0.5 3 C-7.03764216 -0.25243864 -16.38354157 0.63796641 -23.875 3.5 C-24.205 2.84 -24.535 2.18 -24.875 1.5 C-17.29906652 -2.852132 -8.19957966 -3.07484237 0 0 Z " fill="#C5CFCC" transform="translate(259.875,141.5)"/>
<path d="M0 0 C8.91293467 3.81701838 15.62812677 15.17140576 21 23 C21.33 23.99 21.66 24.98 22 26 C17.94139463 24.64713154 17.28784244 22.56634263 15 19 C13.35830472 16.97945196 11.69088222 14.97956942 10 13 C9.55140625 12.44699219 9.1028125 11.89398438 8.640625 11.32421875 C6.2075048 8.20987799 6.2075048 8.20987799 3 6 C3 5.01 3 4.02 3 3 C2.34 3 1.68 3 1 3 C0.67 2.01 0.34 1.02 0 0 Z " fill="#BFC2C1" transform="translate(397,89)"/>
<path d="M0 0 C0.66 0 1.32 0 2 0 C0.40276505 10.39142267 -3.25794249 18.68457478 -8 28 C-9.12803498 24.61589507 -8.93012259 24.15596722 -7.63671875 21.015625 C-7.32669922 20.24476563 -7.01667969 19.47390625 -6.69726562 18.6796875 C-6.19743164 17.47699219 -6.19743164 17.47699219 -5.6875 16.25 C-3.49101541 10.87983727 -1.47887757 5.61523056 0 0 Z " fill="#E2E2E2" transform="translate(432,282)"/>
<path d="M0 0 C1.28253196 3.63828056 0.70925239 6.16299043 -0.21484375 9.859375 C-0.48876953 10.97441406 -0.76269531 12.08945313 -1.04492188 13.23828125 C-1.33947266 14.39714844 -1.63402344 15.55601562 -1.9375 16.75 C-2.22818359 17.92433594 -2.51886719 19.09867188 -2.81835938 20.30859375 C-3.53729359 23.20790223 -4.26479233 26.10478324 -5 29 C-5.66 29 -6.32 29 -7 29 C-6.48400816 21.1177798 -4.9078547 13.65541695 -3 6 C-2.34 6 -1.68 6 -1 6 C-1.020625 5.195625 -1.04125 4.39125 -1.0625 3.5625 C-1 1 -1 1 0 0 Z " fill="#DDE5E4" transform="translate(57,167)"/>
<path d="M0 0 C5.25341693 1.95715533 8.08211949 3.89100337 12 8 C13.34318076 8.97367119 14.69823884 9.93109237 16.0625 10.875 C20.04484268 13.76577427 21.88304774 16.5896828 24 21 C23.01 21 22.02 21 21 21 C18 16.77777778 18 16.77777778 18 14 C17.48953125 13.773125 16.9790625 13.54625 16.453125 13.3125 C13.02231322 11.47690643 9.91729979 9.25316042 6.75 7 C6.1003125 6.54882812 5.450625 6.09765625 4.78125 5.6328125 C3.14924291 4.47395032 1.5695175 3.24218497 0 2 C0 1.34 0 0.68 0 0 Z " fill="#B0B4B3" transform="translate(315,239)"/>
<path d="M0 0 C0.33 0.66 0.66 1.32 1 2 C0.39003174 2.25692627 -0.21993652 2.51385254 -0.84838867 2.77856445 C-3.62974195 3.95267872 -6.40862602 5.13253047 -9.1875 6.3125 C-10.14720703 6.71662109 -11.10691406 7.12074219 -12.09570312 7.53710938 C-13.49272461 8.13168945 -13.49272461 8.13168945 -14.91796875 8.73828125 C-15.77156982 9.09962158 -16.6251709 9.46096191 -17.50463867 9.83325195 C-20.08517336 10.97985992 -20.08517336 10.97985992 -22.6730957 12.66088867 C-25 14 -25 14 -27.3125 13.6875 C-27.869375 13.460625 -28.42625 13.23375 -29 13 C-23.98485926 9.30463314 -18.81005753 7.18369869 -13 5 C-10.62473715 4.08401466 -8.24974102 3.16733739 -5.875 2.25 C-3.91692386 1.49932878 -1.95868218 0.74908848 0 0 Z " fill="#D4DBDA" transform="translate(179,42)"/>
<path d="M0 0 C0.66 0.33 1.32 0.66 2 1 C0.88266271 2.50571657 -0.24410035 4.00444292 -1.375 5.5 C-2.00148438 6.3353125 -2.62796875 7.170625 -3.2734375 8.03125 C-3.84320313 8.6809375 -4.41296875 9.330625 -5 10 C-5.66 10 -6.32 10 -7 10 C-7 10.99 -7 11.98 -7 13 C-7.99 13 -8.98 13 -10 13 C-10 13.66 -10 14.32 -10 15 C-11.609375 16.62109375 -11.609375 16.62109375 -13.75 18.4375 C-14.79414063 19.33275391 -14.79414063 19.33275391 -15.859375 20.24609375 C-17.86673589 21.89081098 -19.91070312 23.46126108 -22 25 C-20.49770909 21.17598678 -18.1988409 19.4791017 -15 17 C-14.34 16.01 -13.68 15.02 -13 14 C-12.34 14 -11.68 14 -11 14 C-10.64808594 13.17242187 -10.64808594 13.17242187 -10.2890625 12.328125 C-8.67151842 9.40674236 -6.63549805 7.20425503 -4.375 4.75 C-3.14910156 3.41195313 -3.14910156 3.41195313 -1.8984375 2.046875 C-1.27195312 1.37140625 -0.64546875 0.6959375 0 0 Z " fill="#CFD0CF" transform="translate(396,351)"/>
<path d="M0 0 C8.58077055 -0.24911914 16.58173087 0.30117812 25 2 C24.67 2.66 24.34 3.32 24 4 C15.86455314 4.28545428 8.02350304 3.18396883 0 2 C0 1.34 0 0.68 0 0 Z " fill="#DFE5E3" transform="translate(212,432)"/>
<path d="M0 0 C3.93443349 1.38446852 6.87737058 3.22706532 10.1875 5.75 C15.26954735 9.53391569 20.50492844 12.85314774 26 16 C25.67 16.66 25.34 17.32 25 18 C20.26825372 16.18009758 17.54691387 14.66133044 14 11 C12.03120677 9.93988057 10.03564133 8.92529151 8 8 C8 7.34 8 6.68 8 6 C7.4225 5.71125 6.845 5.4225 6.25 5.125 C4.16666667 4.08333333 2.08333333 3.04166667 0 2 C0 1.34 0 0.68 0 0 Z " fill="#E4E3E3" transform="translate(125,384)"/>
<path d="M0 0 C6.625 0.75 6.625 0.75 10 3 C11.99054876 3.69437747 13.99255385 4.35610218 16 5 C18.67515168 5.9784789 21.33659603 6.98974332 24 8 C24 8.66 24 9.32 24 10 C16 7.33333333 8 4.66666667 0 2 C0 1.34 0 0.68 0 0 Z " fill="#D0D7D7" transform="translate(302,40)"/>
<path d="M0 0 C0.66 0 1.32 0 2 0 C2.28100502 7.16562789 1.20443195 13.94546999 0 21 C-0.99 21 -1.98 21 -3 21 C-2.01 14.07 -1.02 7.14 0 0 Z " fill="#E8E8E8" transform="translate(439,245)"/>
<path d="M0 0 C6.70774643 1.17855732 13.36181939 2.47648314 20 4 C20 4.66 20 5.32 20 6 C13.13963599 5.34034961 6.65556077 3.7637236 0 2 C0 1.34 0 0.68 0 0 Z " fill="#DEE5E3" transform="translate(189,427)"/>
<path d="M0 0 C0.66 0 1.32 0 2 0 C3.49629179 1.6785513 4.92292661 3.41958898 6.3125 5.1875 C8.69854838 8.21360889 11.00740384 11.00709319 13.79296875 13.67578125 C16 16 16 16 16 19 C11.96620595 17.65540198 10.41991507 14.92747233 8 11.625 C4.80668424 7.23876757 4.80668424 7.23876757 1.1875 3.2109375 C0 2 0 2 0 0 Z " fill="#C8C9C8" transform="translate(389,96)"/>
<path d="M0 0 C6.70228201 0.81735146 12.62861795 2.61983748 17 8 C17.33 8.99 17.66 9.98 18 11 C15.27119497 9.79932579 13.0423147 8.29793285 10.6875 6.5 C7.22999722 3.96300121 4.16582398 2.93518497 0 2 C0 1.34 0 0.68 0 0 Z " fill="#CAD3D3" transform="translate(139,277)"/>
<path d="M0 0 C6.32258065 -0.36476427 6.32258065 -0.36476427 9.4375 1.3125 C11 3 11 3 11 6 C9.5410574 5.52269162 8.08286504 5.04308958 6.625 4.5625 C5.81289062 4.29566406 5.00078125 4.02882813 4.1640625 3.75390625 C2 3 2 3 0 2 C0 1.34 0 0.68 0 0 Z " fill="#D7E0DF" transform="translate(158,416)"/>
<path d="M0 0 C8.415 1.98 8.415 1.98 17 4 C17 4.66 17 5.32 17 6 C14.54093963 5.52434234 12.08279007 5.04463948 9.625 4.5625 C8.92632812 4.42779297 8.22765625 4.29308594 7.5078125 4.15429688 C2.2265625 3.11328125 2.2265625 3.11328125 0 2 C0 1.34 0 0.68 0 0 Z " fill="#DBDBDB" transform="translate(289,25)"/>
<path d="M0 0 C-0.65793165 1.67013418 -1.32723284 3.3357865 -2 5 C-2.24105469 5.61230469 -2.48210937 6.22460938 -2.73046875 6.85546875 C-4.77425614 11.88712807 -4.77425614 11.88712807 -7 13 C-6.74379316 11.3934324 -6.46944129 9.7897517 -6.1875 8.1875 C-6.03667969 7.29417969 -5.88585937 6.40085937 -5.73046875 5.48046875 C-4.77666507 2.24161669 -3.59172422 0 0 0 Z " fill="#D0D1D1" transform="translate(307,268)"/>
<path d="M0 0 C0.66 0 1.32 0 2 0 C1.67 4.95 1.34 9.9 1 15 C0.34 15 -0.32 15 -1 15 C-2.20220203 11.46905698 -1.79532349 8.87101018 -1.0625 5.25 C-0.86785156 4.26515625 -0.67320313 3.2803125 -0.47265625 2.265625 C-0.31667969 1.51796875 -0.16070312 0.7703125 0 0 Z " fill="#ECF1EF" transform="translate(49,196)"/>
<path d="M0 0 C0.66 0 1.32 0 2 0 C2 0.66 2 1.32 2 2 C0.42330631 3.37015264 -1.21243838 4.67291702 -2.875 5.9375 C-5.88187545 8.22906462 -7.89054025 9.83581038 -10 13 C-10.99 13 -11.98 13 -13 13 C-11.69435407 9.0830622 -9.71750027 7.92080562 -6.5 5.375 C-5.4996875 4.57835937 -4.499375 3.78171875 -3.46875 2.9609375 C-2.6540625 2.31382812 -1.839375 1.66671875 -1 1 C-0.67 0.67 -0.34 0.34 0 0 Z " fill="#B3B8B6" transform="translate(205,154)"/>
<path d="M0 0 C0.66 0 1.32 0 2 0 C2 0.99 2 1.98 2 3 C0.36675689 4.05370523 -1.31243867 5.03567924 -3 6 C-6.04520766 8.27626727 -9.02435866 10.63374926 -12 13 C-12 12.01 -12 11.02 -12 10 C-9.62890625 7.7734375 -9.62890625 7.7734375 -6.5625 5.375 C-5.55316406 4.57835937 -4.54382813 3.78171875 -3.50390625 2.9609375 C-2.67761719 2.31382812 -1.85132813 1.66671875 -1 1 C-0.67 0.67 -0.34 0.34 0 0 Z " fill="#D5D5D5" transform="translate(371,376)"/>
<path d="M0 0 C2.51620523 2.41942811 4.8837116 4.94228765 7.1875 7.5625 C7.95126953 8.43068359 7.95126953 8.43068359 8.73046875 9.31640625 C10 11 10 11 11 14 C7.41297339 12.53185858 5.59626852 10.61565711 3.25 7.5625 C2.63640625 6.78003906 2.0228125 5.99757813 1.390625 5.19140625 C0 3 0 3 0 0 Z " fill="#DBDCDC" transform="translate(74,345)"/>
<path d="M0 0 C0.33 0.66 0.66 1.32 1 2 C-0.66666667 3.66666667 -2.33333333 5.33333333 -4 7 C-4.886875 7.928125 -5.77375 8.85625 -6.6875 9.8125 C-9 12 -9 12 -11 12 C-11.33 12.99 -11.66 13.98 -12 15 C-12.33 14.34 -12.66 13.68 -13 13 C-8.66666667 8.66666667 -4.33333333 4.33333333 0 0 Z " fill="#B6C1C0" transform="translate(200,174)"/>
<path d="M0 0 C0.66 0.33 1.32 0.66 2 1 C1.01 2.485 1.01 2.485 0 4 C-2.625 4.1875 -2.625 4.1875 -5 4 C-5 4.66 -5 5.32 -5 6 C-7.64 6.66 -10.28 7.32 -13 8 C-13 7.34 -13 6.68 -13 6 C-10.87959258 4.96966118 -8.75352092 3.95097146 -6.625 2.9375 C-5.44164062 2.36902344 -4.25828125 1.80054688 -3.0390625 1.21484375 C-2.03617187 0.81394531 -1.03328125 0.41304688 0 0 Z " fill="#E7E7E7" transform="translate(329,404)"/>
<path d="M0 0 C1.485 0.99 1.485 0.99 3 2 C3.29296875 5.0390625 3.29296875 5.0390625 3.1875 8.625 C3.16042969 9.81351563 3.13335937 11.00203125 3.10546875 12.2265625 C3.07066406 13.14179688 3.03585938 14.05703125 3 15 C2.34 15 1.68 15 1 15 C0.67 10.05 0.34 5.1 0 0 Z " fill="#E0E1E1" transform="translate(37,243)"/>
<path d="M0 0 C0.66 0 1.32 0 2 0 C0.20809964 5.07705102 -1.76859528 9.88429764 -6.75 12.375 C-7.4925 12.58125 -8.235 12.7875 -9 13 C-9 12.34 -9 11.68 -9 11 C-8.2575 10.443125 -7.515 9.88625 -6.75 9.3125 C-3.38755403 6.48498862 -2.01263373 3.87618348 0 0 Z " fill="#B7C3C1" transform="translate(270,302)"/>
<path d="M0 0 C0 0.66 0 1.32 0 2 C-1.65 2.33 -3.3 2.66 -5 3 C-5.99 5.97 -6.98 8.94 -8 12 C-8.66 12 -9.32 12 -10 12 C-9.74806895 7.71717217 -9.37629014 5.47799018 -6.6875 2.0625 C-4 0 -4 0 0 0 Z " fill="#D6D8D7" transform="translate(271,281)"/>
<path d="M0 0 C0.66 0.33 1.32 0.66 2 1 C0.88266271 2.50571657 -0.24410035 4.00444292 -1.375 5.5 C-2.00148438 6.3353125 -2.62796875 7.170625 -3.2734375 8.03125 C-3.84320313 8.6809375 -4.41296875 9.330625 -5 10 C-5.66 10 -6.32 10 -7 10 C-7 10.99 -7 11.98 -7 13 C-7.66 12.67 -8.32 12.34 -9 12 C-7.55575365 8.76138697 -5.74227753 6.38030837 -3.375 3.75 C-2.74335938 3.04359375 -2.11171875 2.3371875 -1.4609375 1.609375 C-0.97882813 1.07828125 -0.49671875 0.5471875 0 0 Z " fill="#DFDFDF" transform="translate(396,351)"/>
<path d="M0 0 C0.33 0.99 0.66 1.98 1 3 C1.66 3 2.32 3 3 3 C4.32 6.3 5.64 9.6 7 13 C6.01 13.495 6.01 13.495 5 14 C4.15675328 12.421924 3.32576082 10.8372958 2.5 9.25 C2.0359375 8.36828125 1.571875 7.4865625 1.09375 6.578125 C0 4 0 4 0 0 Z " fill="#E1E9E9" transform="translate(61,300)"/>
<path d="M0 0 C1.6254308 0.14095064 3.25034051 0.28792087 4.875 0.4375 C5.77992188 0.51871094 6.68484375 0.59992188 7.6171875 0.68359375 C10 1 10 1 12 2 C11.67 2.66 11.34 3.32 11 4 C7.7 3.67 4.4 3.34 1 3 C0.67 2.01 0.34 1.02 0 0 Z " fill="#E2E3E3" transform="translate(229,299)"/>
<path d="M0 0 C0.66 0 1.32 0 2 0 C1.34 3.63 0.68 7.26 0 11 C-0.66 11 -1.32 11 -2 11 C-1.85892253 9.54119891 -1.71197585 8.08296449 -1.5625 6.625 C-1.48128906 5.81289063 -1.40007812 5.00078125 -1.31640625 4.1640625 C-1 2 -1 2 0 0 Z " fill="#CCD2D1" transform="translate(447,266)"/>
<path d="M0 0 C3.63 0.33 7.26 0.66 11 1 C11 1.66 11 2.32 11 3 C9.741875 3.020625 8.48375 3.04125 7.1875 3.0625 C6.47980469 3.07410156 5.77210938 3.08570313 5.04296875 3.09765625 C3 3 3 3 0 2 C0 1.34 0 0.68 0 0 Z " fill="#DDDDDD" transform="translate(263,21)"/>
<path d="M0 0 C-2.25 2.5625 -2.25 2.5625 -5 5 C-7.3125 4.8125 -7.3125 4.8125 -9 4 C-8.67 3.01 -8.34 2.02 -8 1 C-2.59770115 -1.29885057 -2.59770115 -1.29885057 0 0 Z " fill="#F0F2F2" transform="translate(300,417)"/>
<path d="M0 0 C0.95465783 2.16967689 1.14401212 3.56328793 0.3984375 5.82421875 C-0.35870385 7.5684743 -1.17609198 9.28627131 -2 11 C-2.66 11 -3.32 11 -4 11 C-4 9.68 -4 8.36 -4 7 C-3.34 7 -2.68 7 -2 7 C-1.34 4.69 -0.68 2.38 0 0 Z " fill="#C6CFCE" transform="translate(438,299)"/>
<path d="M0 0 C0.66 0 1.32 0 2 0 C1.67 3.3 1.34 6.6 1 10 C0.34 10 -0.32 10 -1 10 C-1.02689216 8.52093108 -1.04634621 7.04172517 -1.0625 5.5625 C-1.07410156 4.73878906 -1.08570313 3.91507812 -1.09765625 3.06640625 C-1 1 -1 1 0 0 Z " fill="#E4EAE8" transform="translate(448,256)"/>
<path d="M0 0 C0.33 1.32 0.66 2.64 1 4 C-0.98 4.99 -0.98 4.99 -3 6 C-2 4 -1 2 0 0 Z M-5 5 C-4.34 5.33 -3.68 5.66 -3 6 C-3.66 7.65 -4.32 9.3 -5 11 C-5.66 10.67 -6.32 10.34 -7 10 C-6.34 8.35 -5.68 6.7 -5 5 Z " fill="#EFEFEF" transform="translate(76,108)"/>
<path d="M0 0 C2.97 0.495 2.97 0.495 6 1 C6.33 1.99 6.66 2.98 7 4 C4.36 3.67 1.72 3.34 -1 3 C-0.67 2.01 -0.34 1.02 0 0 Z " fill="#D6D8D7" transform="translate(309,268)"/>
<path d="M0 0 C3.5786304 1.65167557 6.74820188 3.78286492 10 6 C9.67 6.66 9.34 7.32 9 8 C6.03 6.35 3.06 4.7 0 3 C0 2.01 0 1.02 0 0 Z " fill="#D5D5D5" transform="translate(277,197)"/>
<path d="M0 0 C0 0.66 0 1.32 0 2 C-5.445 3.485 -5.445 3.485 -11 5 C-11 4.34 -11 3.68 -11 3 C-7.14243493 0.84694043 -4.44870215 -0.39253254 0 0 Z " fill="#CFD8D7" transform="translate(193,38)"/>
<path d="M0 0 C0 0.99 0 1.98 0 3 C-3.80504787 4.79682816 -4.70600835 5.07349791 -9 4 C-6.03 2.68 -3.06 1.36 0 0 Z " fill="#DBE3E0" transform="translate(203,219)"/>
<path d="M0 0 C0.66 0.33 1.32 0.66 2 1 C-0.64960955 4.63094642 -3.01824456 6.89851796 -7 9 C-5.71480435 6.13302508 -4.42870746 4.02392288 -2 2 C-1.34 2 -0.68 2 0 2 C0 1.34 0 0.68 0 0 Z " fill="#DFE8E6" transform="translate(121,73)"/>
<path d="M0 0 C0.66 0 1.32 0 2 0 C0.375 6.75 0.375 6.75 -3 9 C-2.30058404 5.85262818 -1.23921302 2.97411124 0 0 Z " fill="#E0DFDF" transform="translate(420,313)"/>
<path d="M0 0 C0.66 0.33 1.32 0.66 2 1 C1.34 2.98 0.68 4.96 0 7 C-0.66 7 -1.32 7 -2 7 C-2.33 7.66 -2.66 8.32 -3 9 C-2.67 7.02 -2.34 5.04 -2 3 C-1.34 3 -0.68 3 0 3 C0 2.01 0 1.02 0 0 Z " fill="#E2E7E6" transform="translate(433,309)"/>
<path d="M0 0 C0.33 0.66 0.66 1.32 1 2 C1.66 2 2.32 2 3 2 C3.33 3.98 3.66 5.96 4 8 C3.01 8.33 2.02 8.66 1 9 C0.67 6.03 0.34 3.06 0 0 Z " fill="#E3EBE9" transform="translate(429,136)"/>
<path d="M0 0 C1.32 0.33 2.64 0.66 4 1 C4.33 2.32 4.66 3.64 5 5 C4.01 5.33 3.02 5.66 2 6 C1.34 4.02 0.68 2.04 0 0 Z " fill="#DEDEDE" transform="translate(165,281)"/>
<path d="M0 0 C0 0.66 0 1.32 0 2 C-4.15267176 5.11450382 -4.15267176 5.11450382 -7.3125 4.6875 C-7.869375 4.460625 -8.42625 4.23375 -9 4 C-3.375 0 -3.375 0 0 0 Z " fill="#C4CECC" transform="translate(159,51)"/>
</svg>
