<?xml version="1.0" encoding="UTF-8"?>
<svg id="Layer_2" data-name="Layer 2" xmlns="http://www.w3.org/2000/svg" viewBox="0 0 1096.04 1195.51">
  <defs>
    <style>
      .cls-1, .cls-2, .cls-3, .cls-4, .cls-5, .cls-6, .cls-7 {
        stroke-width: 0px;
      }

      .cls-8 {
        stroke-dasharray: 0 0 22.19 22.19;
      }

      .cls-8, .cls-2, .cls-9 {
        fill: none;
      }

      .cls-8, .cls-9 {
        stroke: #000;
        stroke-linecap: round;
        stroke-linejoin: round;
        stroke-width: 8px;
      }

      .cls-3 {
        fill: #fb871f;
      }

      .cls-4 {
        fill: #fbb13c;
      }

      .cls-5 {
        fill: #f9f9f9;
      }

      .cls-6 {
        fill: #ffcdc2;
      }

      .cls-7 {
        fill: #5a4dc4;
      }
    </style>
  </defs>
  <g id="Layer_1-2" data-name="Layer 1">
    <g>
      <g>
        <path class="cls-4" d="M99.4,627.78s-162.21,108.01-66.25,219.07c95.95,111.06,185.06,35.95,185.06,35.95,0,0,39.98-23.99,35.41-120.66-4.57-96.67-13.71-190.34-154.21-134.37Z"/>
        <path class="cls-4" d="M437.52,477c-122.47,12.87-234.05,67.44-338.13,150.79l154.21,134.37,164.49-142.58c25.05-40.49,29.43-88.81,19.42-142.58Z"/>
      </g>
      <polygon class="cls-7" points="267.6 968.48 267.6 1195.51 756.8 1195.51 656.09 924.79 267.6 882.81 267.6 968.48"/>
      <path class="cls-5" d="M309.58,939.06s59.4-8,103.38,25.13c43.98,33.13,163.35,5.14,227.32,26.27,63.97,21.13,37.13-498.62,37.13-498.62l-202.76-9.14-165.06,456.36Z"/>
      <path class="cls-4" d="M528.59,500.7l-50.26,44.55c-55.4,187.82-122.64,354.72-203.87,496.91l-78.82-89.96,241.89-475.2,79.72-58.83h37.36l-26.02,82.53Z"/>
      <polygon class="cls-4" points="750.52 479.28 916.19 414.17 1018.11 575.24 994.97 642.63 709.56 787.71 750.52 479.28"/>
      <path class="cls-4" d="M653.14,430.45l97.38,48.83,49.12,539.17-208.78,75.39,48.27-545.17-41.69-42.84c3.22-34.11,19.23-60.73,55.69-75.39Z"/>
      <g>
        <path class="cls-6" d="M513.49,211.41s15.42,61.69-5.71,114.23c-21.13,52.55-55.4,94.81,27.99,117.09,83.39,22.28,117.09-44.55,117.09-44.55l1.14-66.25,34.84-54.26s14.28-96.53-52.55-102.81c-66.83-6.28-122.8,36.55-122.8,36.55Z"/>
        <path class="cls-6" d="M528.59,440.67v60.03s30.31,42.84,68.86,5.14c38.55-37.7,55.69-75.39,55.69-75.39v-32.27c-61.29-24.83-102.81-10.66-124.55,42.5Z"/>
        <circle class="cls-1" cx="532.36" cy="296.84" r="8.94"/>
        <circle class="cls-2" cx="586.18" cy="312.37" r="30.98"/>
        <circle class="cls-1" cx="591.29" cy="310.32" r="10.45"/>
        <path class="cls-1" d="M565.75,208.55s-59.97,61.69-100.24,6.85c-36.11-49.18,17.36-106.62,60.29-88.28,9.87,4.22,21.15,3.82,30.41-1.61,24.74-14.51,74.33-34.15,123.48,1.65,69.4,50.55,73.68,110.96,73.68,110.96,0,0,24.85,69.82-29.13,82.67,0,0,.86,21.42-15.42,26.56,0,0-3.43-51.4-54.83-15.42l6.85-30.84s-40.27-15.42-22.28-83.96c0,0-57.31,18.09-72.82-8.57Z"/>
        <path class="cls-6" d="M652.85,398.18s48.55,9.71,55.97-50.83c7.43-60.54-43.41-48.55-54.83-15.42-17.83,20.91-21.27,42.79-1.14,66.25Z"/>
        <path class="cls-9" d="M546.03,445.08s53.76,15.53,87.62-22.92"/>
        <path class="cls-9" d="M588.87,276.88c14.36-.49,27.7,2.34,40.02,8.49"/>
        <path class="cls-9" d="M528.44,253.51c10.66,2.74,19.86,7.7,27.59,14.88"/>
        <path class="cls-9" d="M555.13,310.32l-16.74,23.38c-2.64,3.69-1.59,8.84,2.29,11.19l10.09,6.13"/>
        <path class="cls-9" d="M559.39,390.25c-16.22-15.59-28.05-20.99-49.11-14.3"/>
        <path class="cls-9" d="M673.63,323.03s47.23,10.62,2.07,48.62"/>
      </g>
      <g>
        <path class="cls-6" d="M807.42,182.58s-47.58-49.35-78.57-63.55c-23.55-10.79-61.35-15.19-78.15-16.68-4.68-.42-8.77,3.11-9.08,7.8h0c-.24,3.61,1.86,6.96,5.21,8.32l35.63,14.48-46.16.85c-4.03.07-7.37,3.13-7.81,7.13h0c-.46,4.19,2.41,8.02,6.56,8.75,13.98,2.46,43.65,8.18,51.85,13.72,0,0-29.88,11.21-48.4,20.32-4.39,2.16-6.12,7.5-3.85,11.83h0c2.02,3.83,6.54,5.59,10.62,4.12,13.69-4.94,43.71-14.65,57.36-10.25,0,0-24.9,13.1-38.77,26.2-2.22,2.09-2.76,5.41-1.34,8.11h0c1.7,3.22,5.63,4.53,8.92,2.97,10.9-5.16,33.98-15.17,42.67-11.85,11.54,4.42,14.76,26.24,59.8,32.11l33.52-64.36Z"/>
        <path class="cls-6" d="M773.9,246.94l75.56,115.9,66.74-70.09-108.77-110.17c-35.46,11.68-44.66,33.93-33.52,64.36Z"/>
      </g>
      <path class="cls-6" d="M236.48,828.55c-47.25.73-71.14,30.03-80.26,77.39l156.5,141.92c20.08-3.89,49.87-26.15,65.96-50.77l-142.21-168.54Z"/>
      <path class="cls-4" d="M812.2,357.05l182.77,285.58s109.66-53.69,100.52-114.23c-9.14-60.54-179.3-265.02-179.3-265.02-53.34,17.16-73.02,47.39-103.99,93.68Z"/>
      <g>
        <polyline class="cls-9" points="441.52 991.1 441.52 1085.85 492.93 1178.95"/>
        <path class="cls-9" d="M560.32,1016.74s38.84,86.82,161.07,137.65"/>
        <path class="cls-9" d="M846.09,718.31s154.71-79.32,225.18-130.91c86.3-63.18-134.57-298.89-134.57-298.89"/>
        <line class="cls-9" x1="862.31" y1="435.35" x2="903.59" y2="503.41"/>
        <polyline class="cls-9" points="611.16 505.84 639.14 505.84 674.35 561.53 701.02 469.38"/>
        <polyline class="cls-9" points="630.82 642.63 590.86 1093.85 799.64 1018.46"/>
        <polyline class="cls-9" points="442.66 487.85 447.23 557.53 520.91 503.41"/>
        <path class="cls-9" d="M510.28,557.53s33.48,37.7,100.87,15.42"/>
        <path class="cls-9" d="M418.1,868.24s53.62,3.43,110.48-42.84"/>
        <path class="cls-9" d="M382.69,916.22s128.51,9.14,206.19-92.53"/>
        <line class="cls-9" x1="400.92" y1="548.9" x2="267.6" y2="810.82"/>
        <path class="cls-9" d="M389.55,967.62s-26.84,95.38-117.66,81.68"/>
        <path class="cls-9" d="M253.61,762.15s10.16-54.97-24.33-121.8"/>
        <path class="cls-9" d="M99.4,627.78s-148.5,114.3-74.95,208.04c63.24,80.61,131.78,70.11,131.78,70.11"/>
      </g>
      <g>
        <path class="cls-1" d="M87.3,557.1c-12.7-17.61-28.63-26-50.03-18.79,21.92-11.84,27.42-28.78,18.79-50.03,11.42,19.97,26.59,28.75,50.03,18.79-16.79,11.06-24.65,26.87-18.79,50.03Z"/>
        <path class="cls-1" d="M878.46,901.04c8.68-19.9,7.77-37.88-9.34-52.62,21.36,12.82,38.74,8.92,52.62-9.34-11.36,20-11.18,37.53,9.34,52.62-18.07-8.81-35.68-7.51-52.62,9.34Z"/>
        <path class="cls-1" d="M185.13,1137.36c-4.28-21.28-15.33-35.51-37.79-37.79,24.85-1.72,36.86-14.88,37.79-37.79,2.14,22.9,12.33,37.17,37.79,37.79-19.86,3.13-33.55,14.28-37.79,37.79Z"/>
      </g>
      <g>
        <circle class="cls-4" cx="202.38" cy="183.28" r="68.65"/>
        <path class="cls-4" d="M257.42,224.32s-14.42,27.22-20.18,53.32c-.82,3.69-1.45,7.34-1.86,10.9-.31,2.74-.49,5.43-.49,8.02h-65.04c0-2.59-.17-5.28-.49-8.02-.4-3.55-1.04-7.21-1.85-10.9-5.77-26.1-20.18-53.32-20.18-53.32l55.04-41.03,55.05,41.03Z"/>
        <path class="cls-3" d="M169.86,296.56h64.77v.27c0,17.87-14.51,32.39-32.39,32.39h0c-17.87,0-32.39-14.51-32.39-32.39v-.27h0Z"/>
        <path class="cls-3" d="M237.24,277.64c-.82,3.69-1.45,7.34-1.86,10.9h-66.01c-.4-3.55-1.04-7.21-1.85-10.9h69.72Z"/>
        <line class="cls-9" x1="147.34" y1="102.15" x2="102.82" y2="46.74"/>
        <line class="cls-9" x1="107.21" y1="156.27" x2="36.15" y2="127.44"/>
        <line class="cls-9" x1="119.26" y1="221.92" x2="36.15" y2="251.93"/>
        <line class="cls-9" x1="257.42" y1="102.15" x2="301.94" y2="46.74"/>
        <line class="cls-9" x1="297.55" y1="156.27" x2="368.61" y2="127.44"/>
        <line class="cls-9" x1="285.5" y1="221.92" x2="368.61" y2="251.93"/>
        <line class="cls-9" x1="202.38" y1="84.08" x2="202.38" y2="4"/>
        <g>
          <path class="cls-9" d="M202.38,351.62s-.64,4.36-.91,10.96"/>
          <path class="cls-8" d="M202.4,384.72c1.71,12.42,5.9,25.44,15.23,33.44,22.22,19.04,73.64,9.62,88.59-22.76,30.57-66.2-99.26-49.98-65.52,37.75,23.28,60.53,102.25,25.65,144.93-23.73,21.93-25.38,31.66-55.03,35.93-74.71"/>
          <path class="cls-9" d="M423.6,323.81c1.05-6.82,1.25-10.92,1.25-10.92"/>
        </g>
      </g>
    </g>
  </g>
</svg>