<?xml version="1.0" encoding="UTF-8"?>
<svg xmlns="http://www.w3.org/2000/svg" viewBox="0 0 1041.05 1041.88">
  <defs>
    <style>
      .cls-1 {
        fill: #4d4d4d;
      }

      .cls-1, .cls-2, .cls-3, .cls-4, .cls-5, .cls-6, .cls-7, .cls-8 {
        stroke-width: 0px;
      }

      .cls-9 {
        mix-blend-mode: multiply;
        opacity: .7;
      }

      .cls-2 {
        fill: #bcd2fd;
      }

      .cls-3 {
        fill: #e0a4ab;
      }

      .cls-4 {
        fill: #8cc63f;
        opacity: .5;
      }

      .cls-10 {
        isolation: isolate;
      }

      .cls-6 {
        fill: #4874ff;
      }

      .cls-11 {
        stroke: #fff;
        stroke-width: 5px;
      }

      .cls-11, .cls-12 {
        fill: none;
        stroke-linecap: round;
        stroke-linejoin: round;
      }

      .cls-7 {
        fill: #204560;
      }

      .cls-12 {
        stroke: #000;
        stroke-width: 8px;
      }

      .cls-8 {
        fill: #ffcdc2;
      }
    </style>
  </defs>
  <g class="cls-10">
    <g id="Layer_2" data-name="Layer 2">
      <g id="Layer_1-2" data-name="Layer 1">
        <g>
          <path class="cls-2" d="M403.87,309.23v-68.32l-48.74-6.76c-3.05-10.62-7.27-20.75-12.5-30.24l29.22-38.64-48.31-48.31-38.46,29.09c-9.76-5.45-20.19-9.82-31.15-12.96l-6.52-46.98h-68.32l-6.52,46.98c-11.19,3.2-21.83,7.69-31.75,13.3l-37.37-28.26-48.31,48.31,28.57,37.78c-5.47,9.98-9.81,20.67-12.87,31.89l-46.55,6.46v68.32l47.57,6.6c3.26,10.88,7.74,21.24,13.29,30.9l-28.84,38.14,48.31,48.31,39.12-29.59c9.52,5.09,19.67,9.17,30.3,12.1l6.71,48.34h68.32l6.84-49.33c10.32-3.11,20.16-7.32,29.39-12.49l39.41,29.81,48.31-48.31-30.08-39.78c5.07-9.3,9.17-19.2,12.16-29.58l48.77-6.77ZM213.27,330.05c-30.4,0-55.05-24.64-55.05-55.05s24.64-55.05,55.05-55.05,55.05,24.64,55.05,55.05-24.64,55.05-55.05,55.05Z"/>
          <path class="cls-5" d="M391.98,171.03c3.1,23.33-18.67,42.27-26.77,50.82,0,0-84.68-21.45-64.98-129.44h91.75v78.61Z"/>
          <g>
            <rect class="cls-2" x="585.62" y="34.3" width="435.07" height="223.29"/>
            <rect class="cls-2" x="585.62" y="291.42" width="435.07" height="165.32"/>
          </g>
          <g>
            <path class="cls-4" d="M5.58,838.37c5.78-7.89,14.52-13.1,24.13-14.89,19.61-3.65,61.52-18.57,23.75-78.37-48.01-76.02-41.75-110.24,8.5-119.08,50.25-8.84,76.01,100.89,80.85,151.5,4.84,50.61,43.73,21.24,63.06-2.16,25.49-30.85,62.47,63.08.49,116.77-61.98,53.69,15.59,46.56,52.51,4.32,36.92-42.24,52.75,98.95-50.87,130.83-103.63,31.88-199.89-34.48-139.63-60.86,60.26-26.38,23.29-48.92-20.13-67.07-36.18-15.12-59.5-38.01-42.67-60.99Z"/>
            <g>
              <path class="cls-11" d="M202.09,1029.01s-104.09-226.35-130.49-359.16"/>
              <line class="cls-11" x1="13.31" y1="836.08" x2="132.69" y2="867.71"/>
              <path class="cls-11" d="M159.82,929.32s22.1-85.49,66.43-123.97"/>
              <path class="cls-11" d="M90.53,982.96l99.45,17.49s46.49-33.83,72.15-71.3"/>
            </g>
          </g>
          <path class="cls-2" d="M1041.05,837.97v-46.94l-33.48-4.64c-2.1-7.3-4.99-14.25-8.59-20.77l20.08-26.54-33.19-33.19-26.42,19.98c-6.7-3.74-13.87-6.75-21.4-8.9l-4.48-32.27h-46.94l-4.48,32.27c-7.68,2.2-14.99,5.28-21.81,9.13l-25.67-19.42-33.19,33.19,19.63,25.95c-3.76,6.86-6.74,14.2-8.84,21.9l-31.98,4.44v46.94l32.68,4.53c2.24,7.48,5.32,14.59,9.13,21.23l-19.82,26.2,33.19,33.19,26.87-20.33c6.54,3.5,13.51,6.3,20.81,8.31l4.61,33.21h46.94l4.7-33.89c7.09-2.14,13.85-5.03,20.19-8.58l27.07,20.48,33.19-33.19-20.67-27.33c3.48-6.39,6.3-13.19,8.35-20.32l33.51-4.65ZM910.11,852.27c-20.88,0-37.81-16.93-37.81-37.82s16.93-37.81,37.81-37.81,37.82,16.93,37.82,37.81-16.93,37.82-37.82,37.82Z"/>
          <polygon class="cls-7" points="427.59 978.2 445.78 1041.88 616.28 1041.88 599.39 901.27 421.35 877.99 427.59 978.2"/>
          <polygon class="cls-7" points="241.49 901.27 221.22 1041.88 414.59 1041.88 476.19 879.69 241.49 901.27"/>
          <path class="cls-6" d="M540.56,304.16s76.24,77.28,95.99,205.16c14.59,94.44,7.63,234.81,2.99,301.76-1.49,21.52-19.37,38.2-40.94,38.2h0l.78,51.98h-181.58l-25.83-604.24,148.58,7.13Z"/>
          <path class="cls-6" d="M770.03,370.57s-30.85-11.34-53.98,20.41c-23.13,31.75-63.96,93.9-102.06,110.23s-68.95,173.28,8.62,186.44c77.57,13.15,152.87-78.48,189.61-130.64,36.74-52.17,58.06-103.88,35.84-132.91-22.23-29.03-78.02-53.53-78.02-53.53Z"/>
          <path class="cls-6" d="M812.21,351.07l-4.69-2.99c-6.45-4.11-14.93-2.93-20,2.79l-17.5,19.7,78.02,53.53,11.27-18.14c4.17-6.72,2.64-15.5-3.56-20.41h0c-11.93-18.16-25.87-31.12-43.55-34.47Z"/>
          <path class="cls-6" d="M210.3,769.75s-29.11,77.45,35.87,80.05l-4.68,51.46h176.32V287.55l-161.07,10.37-46.44,471.83Z"/>
          <path class="cls-6" d="M256.74,297.92s-71.39,14.9-141.05,188.52c-69.66,173.62-75.89,299.42-11.44,323.33,64.46,23.91,156.99-116.44,176.74-307.74,19.75-191.3-24.26-204.12-24.26-204.12Z"/>
          <polygon class="cls-6" points="378.53 655.93 347.01 676.18 305.95 563.38 364.81 561.79 378.53 655.93"/>
          <path class="cls-6" d="M347.01,688.66s18.71,37.95-28.07,43.67c-46.78,5.72-69.14,113.84-214.69,77.45,0,0-75.37-55.1-22.87-153.87,52.5-98.77,104.48-66.6,153.35-94.12,48.86-27.52,71.22,1.59,71.22,1.59l29.63,62.9,11.44,49.9v12.48Z"/>
          <path class="cls-1" d="M630.79,690.19l18.98-227.23c.56-6.66-4.8-12.33-11.49-12.14l-202.99,5.65c-5.71.16-10.39,4.59-10.86,10.28l-18.88,226.62c-.55,6.65,4.78,12.31,11.45,12.14l202.89-5.03c5.72-.14,10.42-4.57,10.9-10.28Z"/>
          <path class="cls-6" d="M355.16,207.95s-35-3.25-48.86,25.17c0,0-56.14,3.81-49.56,64.81,98.94,19.04,193.99,22.84,283.82,6.24,0,0,14.21-34.31-21.49-46.09,0,0,13.86-50.6-45.05-54.41-58.91-3.81-118.87,4.29-118.87,4.29Z"/>
          <g>
            <path class="cls-8" d="M416.03,567.55c-7.75,5.32-13.66,12.06-13.66,12.06,0,0,40.29,2.8,66.56-.5,17.28-2.17,30.5-6.68,37.53-9.51,3.15-1.27,6.71.29,7.94,3.45h0c1.07,2.75.01,5.88-2.51,7.41l-11.45,6.98,8.15-2.6c5.11-1.63,10.5,1.6,11.47,6.88h0c.63,3.42-.78,6.89-3.62,8.89-4.1,2.89-10.67,7.09-18.59,10.68,0,0,4.2.44,9.37.33,4.28-.09,7.73,3.49,7.38,7.76v.1c-.24,2.8-2.05,5.21-4.68,6.22-3.78,1.44-10.22,3.36-20.02,4.66l9.8,1.5c2.98.45,5.12,3.09,4.96,6.1h0c-.13,2.39-1.7,4.47-3.97,5.23-7.21,2.42-23.67,7.55-39.63,9.75-21.26,2.93-29.18,14.3-69.7,5.59-4.63-1-8.9-1.85-12.84-2.59-23.59-4.41-40.57-25.16-40.23-49.15h0c.16-11.24,4.09-22.13,11.32-30.73,8.34-9.93,21.44-21.38,39.46-25.31,12.48-2.72,22.07-8.56,29.57-13.02l-2.63,29.83Z"/>
            <g class="cls-9">
              <path class="cls-3" d="M495.7,588.64c-11.99,12.35-36.45,15.61-52.79,12.67,2.27-.65,4.53-1.13,6.78-1.56,15.47-3.26,31.24-5.29,46.02-11.11h0Z"/>
            </g>
            <g class="cls-9">
              <path class="cls-3" d="M492.3,612.38c-5.81,5.1-13.28,7.7-20.68,9.39-5.58,1.17-11.3,1.62-16.99,1.21-6.94-.82-7.06-.63-.21-2.45,11.96-2.99,25.78-5.62,37.88-8.15h0Z"/>
            </g>
            <g class="cls-9">
              <path class="cls-3" d="M486.64,633.12c-12.04,9-30.38,10.77-44.87,8.38-7.99-1.76-8.18-1.54.08-2.46,15.06-1.56,29.91-2.79,44.79-5.92h0Z"/>
            </g>
          </g>
          <path class="cls-11" d="M353.25,561.79s-43.27,55.82,4.75,85.11"/>
          <path class="cls-8" d="M472.1,191.3c-12.48,10.66-14.63,69.54-14.63,69.54-51.46,22.61-97.99-11.96-97.99-11.96l11.44-77.19,101.18,19.61Z"/>
          <path class="cls-8" d="M454.36,36.54c60.82-1.04,44.96,58.22,44.96,58.22,0,0-4.68,11.44.78,38.99,5.46,27.55,29.37,80.05-42.11,88.11-71.48,8.06-87.07-50.16-87.07-50.16l7.87-104.1c1.25-16.6,14.88-29.55,31.52-29.96l44.05-1.1Z"/>
          <g class="cls-9">
            <path class="cls-3" d="M381.01,192.34c16.79,18.9,37.62,29.4,63.06,29.77,3.47.26,7.05-.05,10.54.08-3.35.95-6.91,1.97-10.4,2.38-25.29,4.1-51.98-8.99-63.2-32.22h0Z"/>
          </g>
          <g>
            <ellipse class="cls-5" cx="437.41" cy="124.66" rx="6.76" ry="8.46" transform="translate(-16.77 100.43) rotate(-12.85)"/>
            <ellipse class="cls-5" cx="481.18" cy="121.11" rx="6.76" ry="8.46" transform="translate(-14.17 92.35) rotate(-10.8)"/>
            <path class="cls-12" d="M442.08,100.42s-20.26-8.99-31.55,8.69"/>
            <path class="cls-12" d="M497.55,98.65s-17.06-14.15-32.72-.19"/>
            <path class="cls-5" d="M461.74,119.45c4.26,7.14,7.99,13.52,13.55,19.3,1.59,1.73,3.61,3.21,5.12,5.02,5.69,6.8,1.84,15.27-4.81,19.41-2.13,1.38-4.39,2.47-6.84,3.06,2.93-4.33,6.91-8.69,7.22-13.85-.03-1.84-1.13-3.18-2.48-4.36-8.24-6.82-13.16-17.92-11.76-28.57h0Z"/>
            <path class="cls-5" d="M437.19,171.03c10.66,10.21,16.83,15.05,31.59,10.18,1.89-.58,3.75-1.21,5.75-1.71-3.95,7.74-13.35,13.11-22.14,10.98-8.7-2.02-15.11-10.66-15.19-19.45h0Z"/>
          </g>
          <path class="cls-8" d="M383.51,124.66s-23.02-10.21-24.02,15.32,21.52,26.25,21.52,26.25l2.5-41.57Z"/>
          <g class="cls-9">
            <path class="cls-3" d="M382.15,131.07c-10.62,5.07-15.43,9.22-9.12,20.68,1.51,2.94,3.33,5.85,4.99,9.06-3.15-1.76-5.92-4.07-8.27-6.89-10.02-11.86-2.44-24.29,12.39-22.86h0Z"/>
          </g>
          <path class="cls-5" d="M300.23,92.42c14.02-69.2,70.18-58.48,70.18-58.48,96.69-74.34,96.43-3.38,96.43-3.38,0,0,32.49-17.15,47.3,0,20.7,23.96-14.82,64.2-14.82,64.2-21.31-7.02-28.85-29.63-28.85-29.63-24.17,27.03-77.19,6.24-77.19,6.24,5.2,54.06-12.48,68.62-12.48,68.62-7-30.06-38.43-40.34-80.57-47.56Z"/>
          <g>
            <path class="cls-8" d="M851.63,344.4s32.59-52.81,12.95-67.31c-1.37-1.01-3.33-.14-3.6,1.54-1.19,7.37-4.79,25.07-12.92,33.13-10.41,10.32-31.48,22.09-36.29,40.72-4.81,18.63,33.18,4.08,39.87-8.08Z"/>
            <path class="cls-8" d="M776.87,380.15c13.35-19.04,36.43-33.75,40.41-37.43,14.83-13.71,53.2-10.04,53.2-10.04,0,0,2.74-5.51-6.37-18.94-5.79-8.54-3-14.95-.19-18.48,1.39-1.75,4.1-1.57,5.21.37l15.29,26.91s-.26-3.91-1.49-8.74c-1.23-4.83-4.53-16.94-4.53-16.94-6.64-11.8-2.06-18.78,1.38-21.95,1.28-1.18,3.33-.74,3.95.89,2.9,7.68,10.51,27.97,11.54,32.09,1.28,5.1,1.74,20.55,1.74,20.55.79-5.72,4.33-20.91,4.33-20.91-3.75-5.22-5.88-17.67-5.88-17.67-7.61-14.23-2.59-20.12.87-22.31,1.24-.79,2.89-.25,3.48,1.09l11.14,24.98c-4.2-15.79,1.22-20.25,5.01-21.49,1.48-.48,3.01.45,3.19,1.99,1.04,8.83,7.58,35.43,7.05,39.38-.6,4.46-12.29,41.35-16.53,46.02-4.24,4.68-13.93,6.19-18.71,9.33-4.78,3.13-11.68,6.63-11.68,6.63,0,0-19.81,14.53-37.89,23.61-1.84.93-1.03,14.38-5.99,22.73-28.16,4.93-65.66-15.95-58.54-41.66Z"/>
            <g class="cls-9">
              <path class="cls-3" d="M911.89,295.48c2.24,4.34,4.19,8.95,5.42,13.65-.62,8.29-1.96,16.5-4.22,24.51-.76,2.64-1.62,5.27-2.75,7.86-.33-2.81-.39-5.57-.35-8.32.17-8.21,1.25-16.35,3.02-24.36,0,0,.04.82.04.82-.73-4.67-1.28-9.41-1.16-14.16h0Z"/>
            </g>
            <g class="cls-9">
              <path class="cls-3" d="M870.06,349.7c-8.62,6.16-19.66,7.54-29.97,7.82-8.74,1.03-15.85,6.1-21.57,12.91,2.58-9.25,11.33-16.7,20.98-17.85,3.12-.28,6.15-.22,9.2-.33,7.21-.33,14.16-1.04,21.36-2.55h0Z"/>
            </g>
            <g class="cls-9">
              <path class="cls-3" d="M897.99,290.46c1.17,2.32,2.69,5.7,3.81,8.07,1.24,2.64,2.5,5.25,3.91,7.6.24.4.32.86.26,1.29-1.27,8.59-3.12,17.08-5.82,25.35-.91,2.74-1.91,5.46-3.15,8.13-.13-2.94,0-5.84.2-8.72.66-8.59,2.17-17.07,4.26-25.42,0,0,.23,1.52.23,1.52-2.55-5.7-3.68-11.67-3.7-17.83h0Z"/>
            </g>
            <g class="cls-9">
              <path class="cls-3" d="M881.02,296.52c4.18,7.92,6.59,16.57,8.43,25.27-.49,6.52-1.88,13.07-4.06,19.27-.6-3.19-.82-6.37-.93-9.58-.09-3.18-.03-6.34.15-9.49l.06.77c-2.2-8.57-3.87-17.34-3.64-26.24h0Z"/>
            </g>
          </g>
          <g>
            <path class="cls-11" d="M353.25,244.55s23.57,21.06,58.05,23.96c34.48,2.9,57.7-12.7,57.7-12.7"/>
            <path class="cls-11" d="M211.53,808.19s28.75-12.64,65.11-46.96c53.22-50.23,75.76-24.54,74.05-55.42"/>
            <path class="cls-11" d="M238.37,393.92s10.17,41.57-5.44,145.93"/>
            <path class="cls-11" d="M275.14,301.29c74.08,26.06,152.32,32.86,237.55,7.34"/>
            <line class="cls-11" x1="534.67" y1="368.96" x2="558.15" y2="450.81"/>
            <line class="cls-11" x1="640.72" y1="721.93" x2="633.04" y2="693.29"/>
            <path class="cls-11" d="M246.17,849.8s53.54,17.15,140.87,8.84"/>
            <path class="cls-11" d="M81.38,655.91s3.92-20.23,30.76-43.72c18.88-16.52,42.3-26.84,67.1-30.61,11.04-1.68,26.64-5.83,46.65-15.44,43.66-20.95,69.07-26.06,80.05-2.76"/>
            <path class="cls-11" d="M774.09,374.08c5.27,32.3,30.1,48.37,74.51,48.2"/>
            <line class="cls-11" x1="433.84" y1="991.2" x2="460.52" y2="920.96"/>
            <path class="cls-11" d="M505.56,906.46s1.04,69.66-66.54,92.01"/>
          </g>
        </g>
      </g>
    </g>
  </g>
</svg>